<svg width="18" height="18" viewBox="0 0 18 18" fill="none" xmlns="http://www.w3.org/2000/svg">
  <g clip-path="url(#clip0)">
    <path d="M9 18C13.9706 18 18 13.9706 18 9C18 4.02944 13.9706 0 9 0C4.02944 0 0 4.02944 0 9C0 13.9706 4.02944 18 9 18Z" fill="#FFFFFF"/>
    <path d="M9 13.5C11.4853 13.5 13.5 11.4853 13.5 9C13.5 6.51472 11.4853 4.5 9 4.5C6.51472 4.5 4.5 6.51472 4.5 9C4.5 11.4853 6.51472 13.5 9 13.5Z" fill="#4285F4"/>
    <path d="M9 12C10.6569 12 12 10.6569 12 9C12 7.34315 10.6569 6 9 6C7.34315 6 6 7.34315 6 9C6 10.6569 7.34315 12 9 12Z" fill="#FFFFFF"/>
    <path d="M2.25 9C2.25 7.20979 2.94419 5.55704 4.08 4.32L6.75 8.55C6.42 8.925 6.21 9.435 6.21 9.99C6.21 11.055 7.02 11.925 8.04 12.105L5.37 16.335C3.54 15.06 2.25 12.645 2.25 9Z" fill="#EA4335"/>
    <path d="M9 2.25C11.535 2.25 13.785 3.57 15.075 5.535L11.25 5.535C10.485 4.815 9.48 4.365 8.37 4.365C6.66 4.365 5.205 5.52 4.74 7.095L1.905 2.865C3.66 2.775 5.535 2.25 9 2.25Z" fill="#FBBC05"/>
    <path d="M9 15.75C6.465 15.75 4.215 14.43 2.925 12.465L6.75 12.465C7.515 13.185 8.52 13.635 9.63 13.635C11.34 13.635 12.795 12.48 13.26 10.905L16.095 15.135C14.34 15.225 12.465 15.75 9 15.75Z" fill="#34A853"/>
  </g>
  <defs>
    <clipPath id="clip0">
      <rect width="18" height="18" fill="white"/>
    </clipPath>
  </defs>
</svg>





