<svg width="18" height="18" viewBox="0 0 18 18" fill="none" xmlns="http://www.w3.org/2000/svg">
<g clip-path="url(#clip0_2462_3708)">
<mask id="mask0_2462_3708" style="mask-type:luminance" maskUnits="userSpaceOnUse" x="0" y="0" width="18" height="18">
<path d="M18 0H0V18H18V0Z" fill="white"/>
</mask>
<g mask="url(#mask0_2462_3708)">
<path d="M9.00006 14.0074C11.7658 14.0074 14.0078 11.7653 14.0078 8.99955C14.0078 6.23382 11.7658 3.9917 9.00006 3.9917C6.23431 3.9917 3.99219 6.23382 3.99219 8.99955C3.99219 11.7653 6.23432 14.0074 9.00006 14.0074Z" fill="white"/>
<path d="M2.52341 6.53891C2.14981 5.8918 1.71068 5.21265 1.20603 4.50146C0.415977 5.86956 2.68366e-05 7.42155 1.29856e-09 9.00135C-2.6834e-05 10.5812 0.41587 12.1332 1.20588 13.5014C1.99588 14.8695 3.13215 16.0055 4.50045 16.7952C5.86874 17.585 7.42083 18.0005 9.00068 18.0002C9.82898 16.8383 10.3914 16.0007 10.6879 15.4871C11.2573 14.5008 11.9938 13.0887 12.8973 11.2508V11.2497C12.5026 11.9341 11.9346 12.5024 11.2505 12.8977C10.5664 13.2929 9.79035 13.5011 9.00037 13.5011C8.21032 13.5013 7.43415 13.2934 6.74995 12.8984C6.06575 12.5033 5.49761 11.9351 5.10268 11.2509C3.87559 8.96235 3.01583 7.39166 2.52341 6.53891Z" fill="#229342"/>
<path d="M9.00055 17.9996C10.1825 17.9998 11.3529 17.7671 12.4449 17.3149C13.5369 16.8627 14.529 16.1998 15.3648 15.364C16.2005 14.5283 16.8633 13.536 17.3155 12.444C17.7677 11.352 18.0003 10.1816 18 8.99964C17.9997 7.41981 17.5834 5.86789 16.7932 4.49987C15.0883 4.33183 13.83 4.2478 13.0184 4.2478C12.0981 4.2478 10.7586 4.33183 8.99988 4.49987L8.9989 4.50058C9.78895 4.50019 10.5652 4.70784 11.2496 5.10265C11.9339 5.49746 12.5022 6.06551 12.8973 6.74966C13.2925 7.43381 13.5005 8.20996 13.5005 9.00001C13.5005 9.79006 13.2924 10.5662 12.8973 11.2504L9.00055 17.9996Z" fill="#FBC116"/>
<path d="M9.00023 12.5631C10.9679 12.5631 12.5629 10.9681 12.5629 9.00039C12.5629 7.03266 10.9679 5.43762 9.00015 5.43762C7.03261 5.43762 5.4375 7.03274 5.4375 9.00039C5.4375 10.968 7.03261 12.5631 9.00023 12.5631Z" fill="#1A73E8"/>
<path d="M9.00005 4.50031H16.7933C16.0036 3.13199 14.8675 1.99571 13.4994 1.20573C12.1312 0.415741 10.5792 -0.000106877 8.99938 2.06042e-08C7.41952 0.000106918 5.86754 0.416165 4.4995 1.20634C3.13146 1.99651 1.99557 3.13294 1.20605 4.50136L5.1027 11.2507L5.10376 11.2512C4.70843 10.5672 4.50017 9.7911 4.49994 9.00105C4.49971 8.211 4.7075 7.43482 5.10243 6.75056C5.49736 6.06629 6.06549 5.49808 6.7497 5.10305C7.43391 4.70803 8.21 4.50019 9.00005 4.50031Z" fill="#E33B2E"/>
</g>
</g>
<defs>
<clipPath id="clip0_2462_3708">
<rect width="18" height="18" fill="white"/>
</clipPath>
</defs>
</svg>
