<svg width="169" height="53" viewBox="0 0 169 53" fill="none" xmlns="http://www.w3.org/2000/svg">
<path d="M103.221 3.27907H56.3772V50.1225H103.221V3.27907Z" fill="#0062BE"/>
<path d="M49.3512 3.27905H2.50781V50.1225H49.3512V3.27905Z" fill="#0062BE"/>
<path d="M157.091 3.27905H110.248V50.1225H157.091V3.27905Z" fill="#0062BE"/>
<path d="M165.657 4.09884C165.105 3.56349 164.402 3.27908 163.566 3.27908C162.729 3.27908 162.01 3.56349 161.458 4.11557C160.889 4.68439 160.604 5.37031 160.604 6.19007C160.604 7.02656 160.872 7.71248 161.424 8.26456C161.976 8.79991 162.679 9.08432 163.532 9.08432C164.369 9.08432 165.071 8.79991 165.64 8.24783C166.209 7.69575 166.493 6.9931 166.493 6.17334C166.493 5.33685 166.209 4.65093 165.657 4.09884ZM165.339 8.01361C164.854 8.49878 164.252 8.74972 163.549 8.74972C162.83 8.74972 162.227 8.49878 161.742 8.01361C161.257 7.52845 161.006 6.92618 161.006 6.19007C161.006 5.47069 161.24 4.86841 161.725 4.38325C162.211 3.89809 162.813 3.66387 163.549 3.66387C164.268 3.66387 164.871 3.91482 165.356 4.38325C165.841 4.86841 166.092 5.47069 166.092 6.19007C166.075 6.90945 165.824 7.52845 165.339 8.01361Z" fill="#0062BE"/>
<path d="M164.538 6.99294C164.354 6.59143 164.154 6.37394 163.953 6.34048V6.32375C164.237 6.25683 164.455 6.13972 164.605 5.9557C164.756 5.7884 164.84 5.57091 164.84 5.31996C164.84 5.0021 164.722 4.75115 164.488 4.58385C164.254 4.39983 163.903 4.31618 163.434 4.31618H162.33V7.99673H162.999V6.50778H163.284C163.484 6.50778 163.668 6.70854 163.836 7.11005L164.187 7.99673H165.007L164.538 6.99294ZM163.451 5.9557H162.999V4.88499H163.367C163.635 4.88499 163.836 4.91845 163.953 4.98537C164.07 5.05229 164.137 5.18613 164.137 5.40361C164.137 5.57091 164.07 5.70475 163.953 5.80513C163.819 5.92224 163.652 5.9557 163.451 5.9557Z" fill="#0062BE"/>
<path d="M119.7 18.5533H129.521V41.6237H137.869V18.5533H147.672V11.6439H119.7V18.5533Z" fill="white"/>
<path d="M96.8644 41.6237L84.2501 11.6439H84.2334H75.3331H75.3164L62.7021 41.6237H70.883L72.9241 36.772H86.6425L88.6835 41.6237H96.8644Z" fill="white"/>
<path d="M79.7842 21.0961L75.8359 30.4816H83.7324L79.7842 21.0961Z" fill="#0062BE"/>
<path d="M24.2398 11.6439H12.4453V41.6237H24.2398C32.6047 41.6237 39.397 34.8983 39.397 26.6338C39.4137 18.3693 32.6047 11.6439 24.2398 11.6439Z" fill="white"/>
<path d="M22.8334 18.8042H20.7422V34.4633H22.7498C27.7854 34.4633 30.7801 31.5356 30.7801 26.6337C30.7968 21.7988 27.752 18.8042 22.8334 18.8042Z" fill="#0062BE"/>
</svg>
