<svg width="16" height="16" viewBox="0 0 16 16" fill="none" xmlns="http://www.w3.org/2000/svg">
<path d="M5.33301 3.33325C5.33301 2.22868 4.43758 1.33325 3.33301 1.33325C2.22844 1.33325 1.33301 2.22868 1.33301 3.33325C1.33301 4.43782 2.22844 5.33325 3.33301 5.33325C4.43758 5.33325 5.33301 4.43782 5.33301 3.33325Z" fill="#0A0A0A"/>
<path d="M14.667 3.33325C14.667 2.22868 13.7716 1.33325 12.667 1.33325C11.5624 1.33325 10.667 2.22868 10.667 3.33325C10.667 4.43782 11.5624 5.33325 12.667 5.33325C13.7716 5.33325 14.667 4.43782 14.667 3.33325Z" fill="#0A0A0A"/>
<path d="M5.33301 12.6667C5.33301 11.5622 4.43758 10.6667 3.33301 10.6667C2.22844 10.6667 1.33301 11.5622 1.33301 12.6667C1.33301 13.7713 2.22844 14.6667 3.33301 14.6667C4.43758 14.6667 5.33301 13.7713 5.33301 12.6667Z" fill="#0A0A0A"/>
<path d="M14.667 12.6667C14.667 11.5622 13.7716 10.6667 12.667 10.6667C11.5624 10.6667 10.667 11.5622 10.667 12.6667C10.667 13.7713 11.5624 14.6667 12.667 14.6667C13.7716 14.6667 14.667 13.7713 14.667 12.6667Z" fill="#0A0A0A"/>
<path d="M6.66699 3.66675H9.33366" stroke="#0A0A0A" stroke-width="1.33333" stroke-linecap="round"/>
<path d="M9.33366 13H6.66699" stroke="#0A0A0A" stroke-width="1.33333" stroke-linecap="round"/>
<path d="M3.33301 6.66675V9.33341M12.6664 6.66675V9.33341" stroke="#0A0A0A" stroke-width="1.33333" stroke-linecap="round"/>
</svg>
