<svg width="169" height="53" viewBox="0 0 169 53" fill="none" xmlns="http://www.w3.org/2000/svg">
<path d="M103.221 3.27905H56.3772V50.1225H103.221V3.27905Z" fill="#0062BE"/>
<path d="M49.3512 3.27905H2.50781V50.1225H49.3512V3.27905Z" fill="#0062BE"/>
<path d="M157.091 3.27905H110.248V50.1225H157.091V3.27905Z" fill="#0062BE"/>
<path d="M165.657 4.09881C165.105 3.56346 164.402 3.27905 163.566 3.27905C162.729 3.27905 162.01 3.56346 161.458 4.11554C160.889 4.68436 160.604 5.37028 160.604 6.19004C160.604 7.02653 160.872 7.71245 161.424 8.26453C161.976 8.79988 162.679 9.08429 163.532 9.08429C164.369 9.08429 165.071 8.79988 165.64 8.2478C166.209 7.69572 166.493 6.99307 166.493 6.17331C166.493 5.33682 166.209 4.6509 165.657 4.09881ZM165.339 8.01358C164.854 8.49875 164.251 8.74969 163.549 8.74969C162.829 8.74969 162.227 8.49875 161.742 8.01358C161.257 7.52842 161.006 6.92615 161.006 6.19004C161.006 5.47066 161.24 4.86838 161.725 4.38322C162.21 3.89806 162.813 3.66384 163.549 3.66384C164.268 3.66384 164.87 3.91478 165.356 4.38322C165.841 4.86838 166.092 5.47066 166.092 6.19004C166.075 6.90942 165.824 7.52842 165.339 8.01358Z" fill="#0062BE"/>
<path d="M164.538 6.99293C164.354 6.59141 164.154 6.37393 163.953 6.34047V6.32374C164.237 6.25682 164.455 6.13971 164.605 5.95568C164.756 5.78838 164.839 5.5709 164.839 5.31995C164.839 5.00208 164.722 4.75114 164.488 4.58384C164.254 4.39981 163.903 4.31616 163.434 4.31616H162.33V7.99672H162.999V6.50776H163.284C163.484 6.50776 163.668 6.70852 163.836 7.11004L164.187 7.99672H165.007L164.538 6.99293ZM163.451 5.95568H162.999V4.88498H163.367C163.635 4.88498 163.836 4.91843 163.953 4.98535C164.07 5.05227 164.137 5.18611 164.137 5.4036C164.137 5.5709 164.07 5.70473 163.953 5.80511C163.819 5.92222 163.652 5.95568 163.451 5.95568Z" fill="#0062BE"/>
<path d="M119.7 18.5533H129.521V41.6237H137.869V18.5533H147.672V11.6439H119.7V18.5533Z" fill="white"/>
<path d="M96.8645 41.6237L84.2502 11.6439H84.2335H75.3332H75.3165L62.7022 41.6237H70.8831L72.9241 36.7721H86.6426L88.6836 41.6237H96.8645Z" fill="white"/>
<path d="M79.7842 21.0962L75.8359 30.4816H83.7324L79.7842 21.0962Z" fill="#0062BE"/>
<path d="M24.2398 11.6439H12.4453V41.6237H24.2398C32.6047 41.6237 39.397 34.8983 39.397 26.6338C39.4137 18.3693 32.6047 11.6439 24.2398 11.6439Z" fill="white"/>
<path d="M22.8334 18.8042H20.7422V34.4633H22.7498C27.7854 34.4633 30.7801 31.5356 30.7801 26.6337C30.7968 21.7988 27.752 18.8042 22.8334 18.8042Z" fill="#0062BE"/>
</svg>
