<svg width="172" height="69" viewBox="0 0 172 69" fill="none" xmlns="http://www.w3.org/2000/svg">
<path d="M170.245 57.2642H1.63319C0.732013 57.2642 0.00146484 57.9357 0.00146484 58.7642C0.00146484 59.5926 0.732013 60.2642 1.63319 60.2642H170.245C171.146 60.2642 171.876 59.5926 171.876 58.7642C171.876 57.9357 171.146 57.2642 170.245 57.2642Z" fill="#DEDEDE"/>
<path d="M8.46163 48.3494L2.06212 41.9499C1.68344 41.5712 1.06948 41.5712 0.690806 41.9499L0.690803 41.9499C0.312124 42.3286 0.312124 42.9425 0.690803 43.3212L7.09031 49.7207C7.46898 50.0994 8.08294 50.0994 8.46163 49.7207C8.84031 49.342 8.84031 48.7281 8.46163 48.3494Z" fill="#BBBBBB"/>
<path d="M2.05693 49.7205L8.45643 43.321C8.83511 42.9423 8.83511 42.3284 8.45643 41.9497L8.45643 41.9497C8.07775 41.571 7.46379 41.571 7.08511 41.9497L0.685608 48.3492C0.306929 48.7279 0.306929 49.3418 0.685611 49.7205C1.06429 50.0992 1.67825 50.0992 2.05693 49.7205Z" fill="#BBBBBB"/>
<path d="M34.224 51.712C30.9387 51.712 27.9947 51.1787 25.392 50.112C22.7893 49.0453 20.6987 47.4667 19.12 45.376C17.584 43.2853 16.7733 40.768 16.688 37.824H28.336C28.5067 39.488 29.0827 40.768 30.064 41.664C31.0453 42.5173 32.3253 42.944 33.904 42.944C35.5253 42.944 36.8053 42.5813 37.744 41.856C38.6827 41.088 39.152 40.0427 39.152 38.72C39.152 37.6107 38.768 36.6933 38 35.968C37.2747 35.2427 36.3573 34.6453 35.248 34.176C34.1813 33.7067 32.6453 33.1733 30.64 32.576C27.7387 31.68 25.3707 30.784 23.536 29.888C21.7013 28.992 20.1227 27.6693 18.8 25.92C17.4773 24.1707 16.816 21.888 16.816 19.072C16.816 14.8907 18.3307 11.6267 21.36 9.28C24.3893 6.89067 28.336 5.696 33.2 5.696C38.1493 5.696 42.1387 6.89067 45.168 9.28C48.1973 11.6267 49.8187 14.912 50.032 19.136H38.192C38.1067 17.6853 37.5733 16.5547 36.592 15.744C35.6107 14.8907 34.352 14.464 32.816 14.464C31.4933 14.464 30.4267 14.8267 29.616 15.552C28.8053 16.2347 28.4 17.2373 28.4 18.56C28.4 20.0107 29.0827 21.1413 30.448 21.952C31.8133 22.7627 33.9467 23.6373 36.848 24.576C39.7493 25.5573 42.096 26.496 43.888 27.392C45.7227 28.288 47.3013 29.5893 48.624 31.296C49.9467 33.0027 50.608 35.2 50.608 37.888C50.608 40.448 49.9467 42.7733 48.624 44.864C47.344 46.9547 45.4667 48.6187 42.992 49.856C40.5173 51.0933 37.5947 51.712 34.224 51.712Z" fill="#0A0A0A"/>
<path d="M62.847 11.84C60.927 11.84 59.3483 11.2853 58.111 10.176C56.9163 9.024 56.319 7.616 56.319 5.952C56.319 4.24534 56.9163 2.83733 58.111 1.728C59.3483 0.576 60.927 0 62.847 0C64.7243 0 66.2603 0.576 67.455 1.728C68.6923 2.83733 69.311 4.24534 69.311 5.952C69.311 7.616 68.6923 9.024 67.455 10.176C66.2603 11.2853 64.7243 11.84 62.847 11.84ZM68.287 15.552V51.264H57.343V15.552H68.287Z" fill="#0A0A0A"/>
<path d="M89.786 15.04C92.3033 15.04 94.5007 15.552 96.378 16.576C98.298 17.6 99.77 18.944 100.794 20.608V15.552H111.738V51.2C111.738 54.4853 111.077 57.4507 109.754 60.096C108.474 62.784 106.49 64.9173 103.802 66.496C101.157 68.0747 97.85 68.864 93.882 68.864C88.5913 68.864 84.3033 67.6053 81.018 65.088C77.7327 62.6133 75.8553 59.2427 75.386 54.976H86.202C86.5433 56.3413 87.354 57.408 88.634 58.176C89.914 58.9867 91.4927 59.392 93.37 59.392C95.6313 59.392 97.4233 58.7307 98.746 57.408C100.111 56.128 100.794 54.0587 100.794 51.2V46.144C99.7273 47.808 98.2553 49.1733 96.378 50.24C94.5007 51.264 92.3033 51.776 89.786 51.776C86.842 51.776 84.1753 51.0293 81.786 49.536C79.3967 48 77.498 45.8453 76.09 43.072C74.7247 40.256 74.042 37.0133 74.042 33.344C74.042 29.6747 74.7247 26.4533 76.09 23.68C77.498 20.9067 79.3967 18.7733 81.786 17.28C84.1753 15.7867 86.842 15.04 89.786 15.04ZM100.794 33.408C100.794 30.6773 100.026 28.5227 98.49 26.944C96.9967 25.3653 95.162 24.576 92.986 24.576C90.81 24.576 88.954 25.3653 87.418 26.944C85.9247 28.48 85.178 30.6133 85.178 33.344C85.178 36.0747 85.9247 38.2507 87.418 39.872C88.954 41.4507 90.81 42.24 92.986 42.24C95.162 42.24 96.9967 41.4507 98.49 39.872C100.026 38.2933 100.794 36.1387 100.794 33.408Z" fill="#0A0A0A"/>
<path d="M141.415 15.168C145.597 15.168 148.925 16.5333 151.399 19.264C153.917 21.952 155.175 25.664 155.175 30.4V51.264H144.295V31.872C144.295 29.4827 143.677 27.6267 142.439 26.304C141.202 24.9813 139.538 24.32 137.447 24.32C135.357 24.32 133.693 24.9813 132.455 26.304C131.218 27.6267 130.599 29.4827 130.599 31.872V51.264H119.655V15.552H130.599V20.288C131.709 18.7093 133.202 17.472 135.079 16.576C136.957 15.6373 139.069 15.168 141.415 15.168Z" fill="#0A0A0A"/>
</svg>
