<svg width="16" height="16" viewBox="0 0 16 16" fill="none" xmlns="http://www.w3.org/2000/svg">
<rect width="16" height="16" rx="1" fill="#252525"/>
<path fill-rule="evenodd" clip-rule="evenodd" d="M11.2227 10.3558V6.43165C11.2227 5.28928 11.2227 4.7181 10.8821 4.58007C10.5415 4.44203 10.1438 4.85208 9.34855 5.67216L8.24473 6.8104C8.06689 7.00457 7.52782 6.90947 7.52782 6.56955V6.48346C7.52782 5.32207 7.52782 4.74138 7.18388 4.60463C6.83993 4.46788 6.4412 4.89004 5.64375 5.73435L1.98633 9.60667C1.24274 10.394 0.870941 10.7876 1.01299 11.1172C1.15504 11.4467 1.69651 11.4467 2.77945 11.4467H10.1317C10.646 11.4467 10.9031 11.4467 11.0629 11.287C11.2227 11.1272 11.2227 10.8701 11.2227 10.3558ZM4.31297 9.88884C4.31297 10.239 4.053 10.5228 3.73232 10.5228C3.41164 10.5228 3.15167 10.239 3.15167 9.88884C3.15167 9.53871 3.41164 9.25487 3.73232 9.25487C4.053 9.25487 4.31297 9.53871 4.31297 9.88884ZM5.82267 10.5228C6.14335 10.5228 6.40332 10.239 6.40332 9.88884C6.40332 9.53871 6.14335 9.25487 5.82267 9.25487C5.50198 9.25487 5.24201 9.53871 5.24201 9.88884C5.24201 10.239 5.50198 10.5228 5.82267 10.5228Z" fill="white"/>
<path d="M13.5491 8.51855C13.9494 8.51855 14.2948 8.6677 14.5853 8.95028C14.8678 9.23286 15.017 9.57824 15.017 9.97856C15.017 10.3867 14.8678 10.7321 14.5853 11.0147C14.2948 11.3051 13.9494 11.4464 13.5491 11.4464C13.1409 11.4464 12.7956 11.3051 12.513 11.0147C12.2304 10.7321 12.0891 10.3867 12.0891 9.97856C12.0891 9.57824 12.2304 9.23286 12.513 8.95028C12.7956 8.6677 13.1409 8.51855 13.5491 8.51855ZM13.5491 8.76974C13.2116 8.76974 12.929 8.88748 12.6935 9.12297C12.458 9.35845 12.3403 9.64888 12.3403 9.97856C12.3403 10.3161 12.458 10.5987 12.6935 10.8342C12.929 11.0696 13.2116 11.1874 13.5491 11.1874C13.8788 11.1874 14.1692 11.0696 14.4047 10.8342C14.6402 10.5987 14.7579 10.3161 14.7579 9.97856C14.7579 9.64888 14.6402 9.35845 14.4047 9.12297C14.1692 8.88748 13.8788 8.76974 13.5491 8.76974ZM12.9369 9.16221H13.5177C13.9965 9.16221 14.2399 9.32705 14.2399 9.64103C14.2399 9.82942 14.1378 9.96286 13.9416 10.0257C14.0436 10.0728 14.1143 10.1277 14.1535 10.1983C14.1849 10.269 14.2085 10.3946 14.2163 10.5673C14.2163 10.6536 14.2242 10.7243 14.2556 10.7871H13.8788C13.8553 10.7478 13.8396 10.6693 13.8396 10.5594C13.8317 10.4024 13.8082 10.3004 13.7611 10.2533C13.714 10.2062 13.6198 10.1827 13.4785 10.1827H13.3215V10.7871H12.9369V9.16221ZM13.3215 9.88437H13.502C13.7375 9.88437 13.8553 9.81372 13.8553 9.67243C13.8553 9.53114 13.7375 9.4605 13.502 9.4605H13.3215V9.88437Z" fill="white"/>
</svg>
