<svg width="32" height="32" viewBox="0 0 32 32" fill="none" xmlns="http://www.w3.org/2000/svg">
<rect width="32" height="32" rx="2" fill="#252525"/>
<path fill-rule="evenodd" clip-rule="evenodd" d="M22.4454 20.7115V12.8633C22.4454 10.5786 22.4454 9.43619 21.7641 9.16013C21.0829 8.88407 20.2877 9.70415 18.6971 11.3443L16.4895 13.6208C16.1338 14.0091 15.0556 13.8189 15.0556 13.1391V12.9669C15.0556 10.6441 15.0556 9.48277 14.3678 9.20926C13.6799 8.93576 12.8824 9.78008 11.2875 11.4687L3.97266 19.2133C2.48548 20.7879 1.74188 21.5752 2.02599 22.2343C2.31009 22.8935 3.39303 22.8935 5.55891 22.8935H20.2634C21.292 22.8935 21.8063 22.8935 22.1258 22.5739C22.4454 22.2544 22.4454 21.7401 22.4454 20.7115ZM8.62603 19.7774C8.62603 20.4777 8.10609 21.0453 7.46472 21.0453C6.82336 21.0453 6.30342 20.4777 6.30342 19.7774C6.30342 19.0771 6.82336 18.5094 7.46472 18.5094C8.10609 18.5094 8.62603 19.0771 8.62603 19.7774ZM11.6454 21.0453C12.2868 21.0453 12.8067 20.4777 12.8067 19.7774C12.8067 19.0771 12.2868 18.5094 11.6454 18.5094C11.004 18.5094 10.4841 19.0771 10.4841 19.7774C10.4841 20.4777 11.004 21.0453 11.6454 21.0453Z" fill="white"/>
<path d="M27.098 17.0376C27.8986 17.0376 28.5894 17.3359 29.1703 17.901C29.7354 18.4662 30.0337 19.157 30.0337 19.9576C30.0337 20.774 29.7354 21.4647 29.1703 22.0299C28.5894 22.6108 27.8986 22.8933 27.098 22.8933C26.2816 22.8933 25.5909 22.6108 25.0257 22.0299C24.4606 21.4647 24.178 20.774 24.178 19.9576C24.178 19.157 24.4606 18.4662 25.0257 17.901C25.5909 17.3359 26.2816 17.0376 27.098 17.0376ZM27.098 17.54C26.4229 17.54 25.8578 17.7755 25.3868 18.2464C24.9158 18.7174 24.6803 19.2983 24.6803 19.9576C24.6803 20.6327 24.9158 21.1978 25.3868 21.6688C25.8578 22.1398 26.4229 22.3753 27.098 22.3753C27.7574 22.3753 28.3382 22.1398 28.8092 21.6688C29.2802 21.1978 29.5156 20.6327 29.5156 19.9576C29.5156 19.2983 29.2802 18.7174 28.8092 18.2464C28.3382 17.7755 27.7574 17.54 27.098 17.54ZM25.8735 18.3249H27.0352C27.9928 18.3249 28.4795 18.6546 28.4795 19.2826C28.4795 19.6593 28.2754 19.9262 27.8829 20.0518C28.087 20.146 28.2283 20.2559 28.3068 20.3972C28.3696 20.5385 28.4167 20.7897 28.4324 21.135C28.4324 21.3077 28.4481 21.449 28.5109 21.5746H27.7574C27.7103 21.4961 27.6789 21.3391 27.6789 21.1193C27.6632 20.8054 27.6161 20.6013 27.5219 20.5071C27.4277 20.4129 27.2393 20.3658 26.9567 20.3658H26.6427V21.5746H25.8735V18.3249ZM26.6427 19.7692H27.0038C27.4748 19.7692 27.7103 19.6279 27.7103 19.3454C27.7103 19.0628 27.4748 18.9215 27.0038 18.9215H26.6427V19.7692Z" fill="white"/>
</svg>
