<svg width="512" height="512" viewBox="0 0 512 512" fill="none" xmlns="http://www.w3.org/2000/svg">
<rect width="512" height="512" rx="32" fill="#252525"/>
<path fill-rule="evenodd" clip-rule="evenodd" d="M359.126 331.385V205.813C359.126 169.257 359.126 150.979 348.226 146.562C337.327 142.145 324.602 155.266 299.154 181.509L263.831 217.933C258.14 224.146 240.89 221.103 240.89 210.225V207.471C240.89 170.306 240.89 151.724 229.884 147.348C218.878 142.972 206.118 156.481 180.6 183.499L63.5626 307.414C39.7676 332.607 27.8701 345.203 32.4158 355.749C36.9614 366.295 54.2884 366.295 88.9425 366.295H324.215C340.672 366.295 348.901 366.295 354.013 361.183C359.126 356.07 359.126 347.842 359.126 331.385ZM138.016 316.438C138.016 327.643 129.697 336.725 119.436 336.725C109.174 336.725 100.855 327.643 100.855 316.438C100.855 305.234 109.174 296.151 119.436 296.151C129.697 296.151 138.016 305.234 138.016 316.438ZM186.326 336.725C196.588 336.725 204.907 327.643 204.907 316.438C204.907 305.234 196.588 296.151 186.326 296.151C176.064 296.151 167.745 305.234 167.745 316.438C167.745 327.643 176.064 336.725 186.326 336.725Z" fill="white"/>
<path d="M433.569 272.604C446.379 272.604 457.431 277.376 466.725 286.419C475.768 295.461 480.54 306.513 480.54 319.324C480.54 332.385 475.768 343.438 466.725 352.48C457.431 361.774 446.379 366.295 433.569 366.295C420.507 366.295 409.455 361.774 400.413 352.48C391.37 343.438 386.849 332.385 386.849 319.324C386.849 306.513 391.37 295.461 400.413 286.419C409.455 277.376 420.507 272.604 433.569 272.604ZM433.569 280.641C422.768 280.641 413.725 284.409 406.19 291.945C398.654 299.48 394.887 308.774 394.887 319.324C394.887 330.125 398.654 339.167 406.19 346.703C413.725 354.238 422.768 358.006 433.569 358.006C444.119 358.006 453.412 354.238 460.948 346.703C468.484 339.167 472.251 330.125 472.251 319.324C472.251 308.774 468.484 299.48 460.948 291.945C453.412 284.409 444.119 280.641 433.569 280.641ZM413.977 293.201H432.564C447.886 293.201 455.673 298.476 455.673 308.523C455.673 314.551 452.408 318.821 446.128 320.831C449.394 322.338 451.654 324.096 452.91 326.357C453.915 328.618 454.668 332.637 454.92 338.163C454.92 340.926 455.171 343.186 456.176 345.196H444.119C443.365 343.94 442.863 341.428 442.863 337.911C442.612 332.888 441.858 329.622 440.351 328.115C438.844 326.608 435.83 325.855 431.308 325.855H426.285V345.196H413.977V293.201ZM426.285 316.31H432.062C439.597 316.31 443.365 314.049 443.365 309.528C443.365 305.006 439.597 302.746 432.062 302.746H426.285V316.31Z" fill="white"/>
</svg>
