<svg width="124" height="39" viewBox="0 0 124 39" fill="none" xmlns="http://www.w3.org/2000/svg">
<path d="M75.8984 2.41113H41.4539V36.8556H75.8984V2.41113Z" fill="#0062BE"/>
<path d="M36.2884 2.41113H1.84399V36.8556H36.2884V2.41113Z" fill="#0062BE"/>
<path d="M115.511 2.41113H81.0664V36.8556H115.511V2.41113Z" fill="#0062BE"/>
<path d="M121.81 3.01391C121.404 2.62026 120.887 2.41113 120.272 2.41113C119.657 2.41113 119.128 2.62026 118.722 3.02621C118.304 3.44447 118.095 3.94883 118.095 4.55161C118.095 5.16669 118.292 5.67105 118.698 6.07701C119.103 6.47066 119.62 6.67978 120.248 6.67978C120.863 6.67978 121.379 6.47066 121.798 6.0647C122.216 5.65875 122.425 5.14209 122.425 4.53931C122.425 3.92423 122.216 3.41986 121.81 3.01391ZM121.576 5.89248C121.219 6.24923 120.776 6.43375 120.26 6.43375C119.731 6.43375 119.288 6.24923 118.931 5.89248C118.574 5.53574 118.39 5.09288 118.39 4.55161C118.39 4.02264 118.562 3.57978 118.919 3.22304C119.276 2.86629 119.719 2.69407 120.26 2.69407C120.789 2.69407 121.232 2.87859 121.588 3.22304C121.945 3.57978 122.13 4.02264 122.13 4.55161C122.117 5.08058 121.933 5.53574 121.576 5.89248Z" fill="#0062BE"/>
<path d="M120.987 5.14196C120.852 4.84672 120.704 4.6868 120.557 4.6622V4.6499C120.766 4.60069 120.926 4.51458 121.036 4.37926C121.147 4.25625 121.209 4.09633 121.209 3.9118C121.209 3.67807 121.122 3.49355 120.95 3.37053C120.778 3.23521 120.52 3.17371 120.175 3.17371H119.363V5.88006H119.855V4.78521H120.064C120.212 4.78521 120.347 4.93283 120.47 5.22807L120.729 5.88006H121.332L120.987 5.14196ZM120.187 4.37926H119.855V3.59196H120.126C120.323 3.59196 120.47 3.61656 120.557 3.66577C120.643 3.71498 120.692 3.81339 120.692 3.97331C120.692 4.09633 120.643 4.19474 120.557 4.26855C120.458 4.35466 120.335 4.37926 120.187 4.37926Z" fill="#0062BE"/>
<path d="M88.0166 13.6424H95.2376V30.6063H101.376V13.6424H108.585V8.56189H88.0166V13.6424Z" fill="white"/>
<path d="M71.2251 30.6063L61.9497 8.56189H61.9374H55.393H55.3807L46.1053 30.6063H52.1208L53.6216 27.0389H63.7089L65.2097 30.6063H71.2251Z" fill="white"/>
<path d="M58.6659 15.5122L55.7627 22.4134H61.569L58.6659 15.5122Z" fill="#0062BE"/>
<path d="M17.8238 8.56189H9.15118V30.6063H17.8238C23.9746 30.6063 28.969 25.6611 28.969 19.5841C28.9813 13.5071 23.9746 8.56189 17.8238 8.56189Z" fill="white"/>
<path d="M16.7897 13.827H15.252V25.3413H16.7282C20.431 25.3413 22.633 23.1885 22.633 19.5841C22.6453 16.0289 20.4064 13.827 16.7897 13.827Z" fill="#0062BE"/>
</svg>
