<svg width="153" height="33" viewBox="0 0 153 33" fill="none" xmlns="http://www.w3.org/2000/svg">
<path d="M12.2384 0C5.46357 0 0 5.46357 0 12.4569C0 15.298 0.874171 17.9205 2.62251 20.106L12.4569 32.3444L22.2914 20.106C24.0397 17.9205 24.9139 15.298 24.9139 12.4569C24.4768 5.46357 19.0132 0 12.2384 0Z" fill="#B42025"/>
<path d="M17.267 15.7349C16.6113 15.7349 16.1743 16.172 16.1743 16.8276C16.1743 17.4833 16.6113 17.9204 17.267 17.9204C17.9226 17.9204 18.3597 17.4833 18.3597 16.8276C18.3597 16.3906 17.9226 15.7349 17.267 15.7349Z" fill="white"/>
<path d="M6.9939 15.7349C6.33827 15.7349 5.90118 16.1719 5.90118 16.8276C5.90118 17.4832 6.33827 17.9203 6.9939 17.9203C7.64953 17.9203 8.08661 17.4832 8.08661 16.8276C8.08661 16.3905 7.64953 15.7349 6.9939 15.7349Z" fill="white"/>
<path d="M12.2381 0.655579C5.90036 0.655579 0.655334 5.90061 0.655334 12.2384C0.655334 14.8609 1.5295 17.2648 3.05931 19.4503L12.2381 31.033L21.4169 19.4503C22.9467 17.4834 23.8209 14.8609 23.8209 12.2384C23.8209 5.90061 18.5759 0.655579 12.2381 0.655579ZM19.8871 18.5761L12.0196 28.192L4.15202 18.5761C2.84076 16.8278 1.96659 14.8609 1.96659 12.4569C1.96659 6.99333 6.33745 2.62247 11.801 2.62247C17.2646 2.62247 21.6355 6.99333 21.6355 12.4569C22.0725 14.6423 21.1984 16.8278 19.8871 18.5761Z" fill="white"/>
<path d="M10.2725 5.90045C10.054 5.90045 9.83545 6.11899 9.83545 6.33754H10.9282C10.7096 6.11899 10.4911 5.90045 10.2725 5.90045Z" fill="white"/>
<path d="M12.2401 5.90045C12.0216 5.90045 11.803 6.11899 11.803 6.33754H12.6772C12.6772 6.11899 12.4587 5.90045 12.2401 5.90045Z" fill="white"/>
<path d="M13.9876 5.90045C13.769 5.90045 13.5505 6.11899 13.5505 6.33754H14.6432C14.6432 6.11899 14.4246 5.90045 13.9876 5.90045Z" fill="white"/>
<path d="M18.1396 7.21186C18.1396 7.21186 16.1727 6.77478 12.2389 6.77478C8.30516 6.77478 6.33827 7.21186 6.33827 7.21186L5.90118 11.1456C5.90118 11.1456 7.43099 10.7086 12.2389 10.7086C17.0469 10.7086 18.5767 11.1456 18.5767 11.1456L18.1396 7.21186Z" fill="white"/>
<path d="M10.7098 22.2912V12.4567C10.9283 12.4567 11.3654 12.4567 11.584 12.4567V22.7282C11.8025 22.7282 12.021 22.7282 12.021 22.7282C12.2396 22.7282 12.4581 22.7282 12.4581 22.7282V12.4567C12.6767 12.4567 13.1138 12.4567 13.3323 12.4567V22.2912C13.7694 22.0726 14.2065 22.0726 14.425 21.8541V11.5826C14.425 11.5826 12.8952 11.364 12.021 11.364C11.1469 11.364 9.61707 11.5826 9.61707 11.5826V21.8541C10.0542 21.8541 10.2727 22.0726 10.7098 22.2912Z" fill="white"/>
<path d="M38.6813 23.384C37.3701 23.6026 36.933 23.6026 36.0588 23.6026C32.7807 23.6026 31.0323 21.8542 31.0323 18.3575V7.64894H27.9727V5.46351H31.0323V1.09265H33.8734V5.46351H37.8071V7.64894H33.8734V18.5761C33.8734 20.3244 34.7475 21.4171 36.7144 21.4171C37.3701 21.4171 37.8071 21.4171 38.8999 21.1986L38.6813 23.384Z" fill="#3A3A3A"/>
<path d="M40.2135 23.1656V5.46358H42.6175V9.61589C43.4916 7.86755 43.7102 7.43046 44.3658 6.55629C45.24 5.68212 46.5513 5.02649 47.8625 5.02649C48.0811 5.02649 48.5181 5.02649 48.9552 5.02649V7.64901C45.6771 7.43046 43.0546 10.053 43.0546 13.7682V23.1656H40.2135Z" fill="#3A3A3A"/>
<path d="M61.6307 23.1655V19.6688C60.3195 22.0728 58.5711 23.384 55.9486 23.384C52.4519 23.384 50.048 20.7615 50.048 16.6092V5.4635H52.889V16.8277C52.889 18.3575 53.1076 19.4503 53.7632 20.1059C54.4188 20.9801 55.293 21.4171 56.3857 21.4171C59.0082 21.4171 61.1937 18.7946 61.1937 15.5165V5.68204H64.0347V23.384L61.6307 23.1655Z" fill="#3A3A3A"/>
<path d="M79.987 17.2649C79.5499 19.4503 79.1128 20.543 78.0201 21.6358C76.7088 22.947 75.179 23.6026 73.2121 23.6026C68.6227 23.6026 65.7817 19.8874 65.7817 14.4238C65.7817 8.74172 68.8413 5.02649 73.4307 5.02649C77.1459 5.02649 79.3313 7.21192 79.987 11.1457L77.583 11.5828C77.3645 10.2715 77.1459 9.61589 76.7088 8.96026C75.8347 7.86755 74.7419 7.21192 73.4307 7.21192C70.5896 7.21192 68.6227 9.83444 68.6227 14.2053C68.6227 18.5762 70.3711 21.1987 73.2121 21.1987C75.3976 21.1987 76.9274 19.6689 77.583 16.8278L79.987 17.2649Z" fill="#3A3A3A"/>
<path d="M93.1 23.1655L87.855 13.3311L84.1398 17.7019V23.1655H81.2987V1.09265H84.1398V14.4238L92.2259 5.46351H95.2854L89.6033 11.8013L95.9411 23.1655H93.1Z" fill="#3A3A3A"/>
<path d="M97.9076 17.9205C98.1262 19.0132 98.3447 19.4503 99.0003 19.8874C100.093 20.7616 101.623 21.1987 103.371 21.1987C105.775 21.1987 107.524 20.106 107.524 18.3576C107.524 16.8278 106.431 15.9536 104.464 15.7351L100.749 15.0795C97.6891 14.4238 95.9407 12.6755 95.9407 10.2715C95.9407 7.21192 98.5632 5.02649 102.497 5.02649C106.212 5.02649 108.616 6.55629 109.49 9.39735L107.086 9.83444C106.212 7.86755 104.901 6.99338 102.497 6.99338C100.312 6.99338 98.7818 8.08609 98.7818 9.61589C98.7818 10.9271 99.656 11.8013 101.623 12.0199L105.12 12.6755C108.835 13.3311 110.365 15.0795 110.365 17.9205C110.365 21.1987 107.524 23.3841 103.153 23.3841C100.749 23.3841 98.5632 22.7285 97.0334 21.4172C96.1593 20.543 95.7222 19.8874 95.2851 18.3576L97.9076 17.9205Z" fill="#3A3A3A"/>
<path d="M136.372 14.4238C136.372 19.6689 132.875 23.6026 128.286 23.6026C123.696 23.6026 120.637 19.8874 120.637 14.2053C120.637 8.74172 123.915 5.02649 128.504 5.02649C133.094 5.02649 136.372 8.74172 136.372 14.4238ZM124.57 9.17881C123.696 10.2715 123.259 12.0199 123.259 14.2053C123.259 18.7947 125.008 21.4172 128.067 21.4172C131.127 21.4172 133.094 18.7947 133.094 14.4238C133.094 12.0199 132.657 10.4901 131.782 9.17881C130.908 8.08609 129.378 7.21192 128.067 7.21192C126.974 7.21192 125.445 8.08609 124.57 9.17881Z" fill="#3A3A3A"/>
<path d="M137.683 32.7814V5.46358H140.087V8.96026C141.398 6.33775 143.146 5.02649 145.55 5.02649C149.703 5.02649 152.544 8.74172 152.544 14.2053C152.544 19.6689 149.703 23.6026 145.55 23.6026C143.146 23.6026 141.835 22.7285 140.305 20.543V33L137.683 32.7814ZM140.524 16.6093C140.961 19.2318 142.928 21.1987 145.113 21.1987C146.206 21.1987 147.517 20.543 148.391 19.4503C149.266 18.3576 149.703 16.6093 149.703 14.2053C149.703 9.83444 147.954 7.21192 145.113 7.21192C142.928 7.21192 141.179 8.96026 140.524 11.5828V16.6093Z" fill="#3A3A3A"/>
<path d="M120.856 23.384C119.544 23.6026 119.107 23.6026 118.233 23.6026C114.955 23.6026 113.207 21.8542 113.207 18.3575V7.64894H110.147V5.46351H113.207V1.09265H115.829V5.46351H119.763V7.64894H115.829V18.5761C115.829 20.3244 116.922 21.4171 118.67 21.4171C119.326 21.4171 119.763 21.4171 120.856 21.1986V23.384Z" fill="#3A3A3A"/>
<path d="M112.77 31.2516H111.24V32.7815H112.77V31.2516Z" fill="#676767"/>
<path d="M118.671 30.5959C118.452 31.2515 118.452 31.6886 118.015 31.9071C117.578 32.5628 116.923 32.7813 116.048 32.7813C114.3 32.7813 113.426 31.4701 113.426 29.5032C113.426 27.5363 114.519 26.225 116.267 26.225C117.141 26.225 117.797 26.4436 118.234 27.0992C118.671 27.5363 118.671 27.7548 118.89 28.4105L117.578 28.629C117.578 27.7548 117.141 27.5363 116.486 27.5363C115.611 27.5363 115.174 28.4105 115.174 29.7217C115.174 31.033 115.611 31.6886 116.486 31.6886C117.141 31.6886 117.578 31.2515 117.797 30.3774L118.671 30.5959Z" fill="#676767"/>
<path d="M124.57 27.7548C125.007 28.4104 125.007 28.8475 125.007 29.7217C125.007 31.6886 123.696 32.9998 121.948 32.9998C120.855 32.9998 120.2 32.5627 119.762 31.9071C119.325 31.2515 119.107 30.5959 119.107 29.7217C119.107 27.7548 120.418 26.4435 122.166 26.4435C123.259 26.4435 123.915 26.8806 124.57 27.7548ZM120.637 29.7217C120.637 31.0329 121.074 31.9071 122.166 31.9071C123.041 31.9071 123.696 31.0329 123.696 29.7217C123.696 28.4104 123.259 27.5363 122.166 27.5363C121.074 27.5363 120.637 28.4104 120.637 29.7217Z" fill="#676767"/>
<path d="M133.53 32.7813V28.8475C133.53 27.9733 133.093 27.5363 132.437 27.5363C131.563 27.5363 131.126 28.1919 131.126 29.5031V32.7813H129.596V28.8475C129.596 28.4104 129.596 28.4104 129.377 28.1919C129.159 27.9733 128.94 27.7548 128.503 27.7548C127.629 27.7548 126.973 28.629 126.973 29.7217V32.9998H125.662V26.6621H126.973V27.9733C127.192 27.5363 127.41 27.3177 127.629 26.8806C128.066 26.6621 128.503 26.4435 129.159 26.4435C130.033 26.4435 130.689 26.8806 130.907 27.9733C131.344 26.8806 132.218 26.4435 133.093 26.4435C134.185 26.4435 135.059 27.3177 135.059 28.4104V32.9998L133.53 32.7813Z" fill="#676767"/>
</svg>
