<svg width="147" height="33" viewBox="0 0 147 33" fill="none" xmlns="http://www.w3.org/2000/svg">
<g clip-path="url(#clip0_2463_4973)">
<g clip-path="url(#clip1_2463_4973)">
<path d="M12.4076 5.13164V8.91632L16.6672 13.1173L21.6946 16.0189L22.6233 9.64802L21.6946 3.7187L19.0943 1.73805C16.3329 -0.381361 12.4076 1.62451 12.4076 5.13164Z" fill="#C5221F"/>
<path d="M43.9835 3.71882L43.0548 9.72383L43.9835 16.019L48.5403 13.723L53.2705 8.92905V5.14438C53.2705 1.63725 49.3452 -0.36863 46.5839 1.73817L43.9835 3.71882Z" fill="#FFBA00"/>
<path d="M15.1937 32.1039H21.6946V16.019L12.4076 8.91644V29.2527C12.4076 30.8171 13.6582 32.0912 15.1937 32.0912V32.1039Z" fill="#2684FC"/>
<path d="M43.9832 32.1039H50.4841C52.0195 32.1039 53.2702 30.8297 53.2702 29.2654V8.91644L43.9832 16.0064V32.0912V32.1039Z" fill="#00AC47"/>
<path d="M32.8393 12.2344L21.6948 3.71887V16.0191L32.8393 24.5346L43.9837 16.0191V3.71887L32.8393 12.2344Z" fill="#E94235"/>
<path d="M85.7624 17.2932C85.7624 20.0686 84.9576 22.2763 83.3354 23.929C81.5152 25.8844 79.1253 26.8684 76.1658 26.8684C73.2064 26.8684 70.9403 25.8718 68.9715 23.8659C67.0026 21.86 66.0244 19.4126 66.0244 16.4858C66.0244 13.559 67.0026 11.0989 68.9715 9.10566C70.928 7.1124 73.3302 6.10315 76.1658 6.10315C77.6022 6.10315 78.952 6.36808 80.2274 6.88531C81.5028 7.40255 82.5429 8.13426 83.3602 9.08042L81.5647 10.9097C80.9703 10.1654 80.1902 9.59766 79.2244 9.19396C78.2833 8.76504 77.2679 8.55057 76.1782 8.55057C74.0484 8.55057 72.2529 9.29489 70.7794 10.7961C69.3306 12.31 68.6 14.215 68.6 16.4858C68.6 18.7566 69.3306 20.6615 70.7794 22.1754C72.2529 23.6766 74.0484 24.421 76.1782 24.421C78.1223 24.421 79.7321 23.8659 81.0322 22.7557C82.32 21.6455 83.063 20.1191 83.2611 18.1763H76.1782V15.7919H85.6262C85.7129 16.3091 85.7624 16.8138 85.7624 17.2932ZM90.9879 26.4268H88.4866V12.8272H90.8889V14.7196H91.0003C91.3842 14.051 91.9662 13.4959 92.7463 13.0543C93.5512 12.6128 94.3313 12.3857 95.1114 12.3857C96.0896 12.3857 96.9564 12.6128 97.6994 13.0796C98.4423 13.5463 98.9872 14.1771 99.3339 14.9971C100.436 13.2562 101.971 12.3857 103.94 12.3857C105.488 12.3857 106.677 12.8651 107.506 13.8239C108.336 14.7827 108.757 16.1578 108.757 17.9366V26.4268H106.256V18.3276C106.256 17.0535 106.033 16.1325 105.575 15.5774C105.117 15.0097 104.361 14.7196 103.284 14.7196C102.318 14.7196 101.513 15.1359 100.857 15.9685C100.201 16.8012 99.8787 17.7852 99.8787 18.908V26.4268H97.3774V18.3276C97.3774 17.0535 97.1545 16.1325 96.6964 15.5774C96.2382 15.0097 95.4829 14.7196 94.4056 14.7196C93.4397 14.7196 92.6348 15.1359 91.9786 15.9685C91.3223 16.8012 91.0003 17.7852 91.0003 18.908V26.4268H90.9879ZM113.463 22.2637C113.463 22.9323 113.735 23.4874 114.28 23.929C114.837 24.3705 115.493 24.5976 116.236 24.5976C117.289 24.5976 118.23 24.1939 119.047 23.3991C119.877 22.6043 120.298 21.6708 120.298 20.5984C119.518 19.9677 118.428 19.6523 117.029 19.6523C116.013 19.6523 115.159 19.9046 114.466 20.3966C113.797 20.9012 113.463 21.5194 113.463 22.2511V22.2637ZM116.707 12.3731C118.564 12.3731 120.025 12.8777 121.09 13.8996C122.168 14.8962 122.7 16.2713 122.7 18.0375V26.4142H120.298V24.5219H120.186C119.146 26.0736 117.772 26.8558 116.051 26.8558C114.577 26.8558 113.339 26.4142 112.348 25.5185C111.37 24.6354 110.875 23.5253 110.875 22.188C110.875 20.7877 111.395 19.6649 112.422 18.8323C113.475 17.9996 114.874 17.5833 116.62 17.5833C118.106 17.5833 119.332 17.8609 120.298 18.4159V17.8356C120.298 16.9525 119.951 16.1956 119.258 15.5901C118.564 14.9593 117.759 14.6439 116.831 14.6439C115.431 14.6439 114.329 15.2494 113.512 16.4479L111.308 15.035C112.521 13.2562 114.317 12.3731 116.707 12.3731ZM128.867 8.13426C128.867 8.63888 128.693 9.05519 128.347 9.40843C128 9.76167 127.579 9.93828 127.096 9.93828C126.613 9.93828 126.192 9.76167 125.845 9.40843C125.499 9.05519 125.325 8.62626 125.325 8.13426C125.325 7.64225 125.499 7.21332 125.845 6.86008C126.192 6.50685 126.613 6.33023 127.096 6.33023C127.579 6.33023 128 6.50685 128.347 6.86008C128.693 7.21332 128.867 7.64225 128.867 8.13426ZM128.359 12.8272V26.4268H125.858V12.8272H128.359ZM134.228 6.54469V26.4142H131.727V6.54469H134.228Z" fill="#5F6368"/>
</g>
</g>
<defs>
<clipPath id="clip0_2463_4973">
<rect width="146.636" height="32.9715" fill="white"/>
</clipPath>
<clipPath id="clip1_2463_4973">
<rect width="121.821" height="31.2362" fill="white" transform="translate(12.4076 0.867737)"/>
</clipPath>
</defs>
</svg>
