<svg width="48" height="47" viewBox="0 0 48 47" fill="none" xmlns="http://www.w3.org/2000/svg">
<path d="M41.5136 1H6.48651C4.39001 1 2.76727 1.41412 1.66347 2.23094C0.55967 3.04766 3.05176e-05 4.24848 3.05176e-05 5.8V42.2C3.05176e-05 43.7514 0.55967 44.9522 1.66347 45.769C2.76713 46.5858 4.38987 47 6.48651 47H41.5136C43.61 47 45.2328 46.5858 46.3366 45.769C47.4404 44.9524 48 43.7516 48 42.2V5.8C48 4.24858 47.4404 3.04776 46.3366 2.23094C45.2328 1.41412 43.6102 1 41.5136 1Z" fill="#C7C1BB"/>
<path d="M41.5136 6.10352e-05H6.48651C4.39001 6.10352e-05 2.76727 0.414181 1.66347 1.231C0.55967 2.04772 3.05176e-05 3.24854 3.05176e-05 4.80006V39.2001C3.05176e-05 40.7515 0.55967 41.9523 1.66347 42.7691C2.76713 43.5859 4.38987 44.0001 6.48651 44.0001H41.5136C43.61 44.0001 45.2328 43.5859 46.3366 42.7691C47.4404 41.9525 48 40.7517 48 39.2001V4.80006C48 3.24864 47.4404 2.04782 46.3366 1.231C45.2328 0.414181 43.6102 6.10352e-05 41.5136 6.10352e-05Z" fill="#F7F5F2"/>
<path fill-rule="evenodd" clip-rule="evenodd" d="M19.7657 16V28H23.9997L24.3797 27.984C28.1657 27.796 30.0057 25.832 30.0057 22C30.0057 18.1 28.0977 16.134 24.1737 16.006L19.7657 16ZM22.0657 18V26H23.5477H22.9997H23.7557C25.4917 26 26.2957 25.596 26.6917 25.218C27.0837 24.838 27.5057 23.666 27.5057 22C27.5057 20.334 27.0857 19.16 26.6917 18.784C26.2977 18.404 25.4917 18 23.7557 18H22.0657Z" fill="#F25123"/>
<path d="M40.2145 18H34.2825V22H39.4985V24H34.2825V28H31.9825V16H40.2145V18Z" fill="#F25123"/>
<path fill-rule="evenodd" clip-rule="evenodd" d="M7.99808 16V28H10.2981V24L14.0841 23.988C15.1381 23.928 16.1241 23.636 16.8641 22.956C17.7041 22.182 17.9981 21.118 17.9981 20C17.9981 18.88 17.7021 17.82 16.8621 17.046C16.1221 16.366 15.1381 16.072 14.0841 16.012L7.99808 16ZM10.2981 18V22H13.6521C14.4721 22 14.8381 21.662 15.0101 21.504L15.0181 21.496C15.1861 21.34 15.6061 20.766 15.6061 20C15.6061 19.234 15.1861 18.66 15.0181 18.506L15.0101 18.498C14.8361 18.338 14.4701 18 13.6501 18H10.2981Z" fill="#F25123"/>
</svg>
