<svg width="120" height="120" viewBox="0 0 120 120" fill="none" xmlns="http://www.w3.org/2000/svg">
<path d="M59.6245 104.471C60.4278 104.471 61.5882 104.159 62.748 103.582C88.272 90.4694 96.7059 83.58 96.7059 67.6673V34.5537C96.7059 29.3972 94.6976 27.5301 90.3247 25.7082C85.4612 23.7078 68.9958 17.8849 64.2212 16.2847C62.7932 15.84 61.1421 15.5294 59.6245 15.5294C58.152 15.5294 56.5009 15.8852 55.0729 16.2847C50.2539 17.796 33.8329 23.7078 28.9694 25.7082C24.5965 27.4857 22.5882 29.3972 22.5882 34.5529V67.6673C22.5882 83.58 31.3786 89.8468 56.5461 103.582C57.7059 104.204 58.8664 104.471 59.6245 104.471ZM43.0249 76.068V58.1104C43.0249 54.9106 44.3195 53.3104 46.9073 53.0435V47.8433C46.9073 39.3537 52.0835 33.6642 59.6696 33.6642C67.2106 33.6642 72.3868 39.3537 72.3868 47.8433V53.0435C74.9746 53.3104 76.2692 54.9106 76.2692 58.1111V76.068C76.2692 79.6242 74.7071 81.2238 71.4494 81.2238H47.8892C44.5871 81.2238 43.0249 79.6242 43.0249 76.068ZM52.3962 52.9546H66.8979V47.3541C66.8979 42.2873 63.9974 38.9089 59.6245 38.9089C55.296 38.9089 52.3962 42.2873 52.3962 47.3541V52.9546Z" fill="url(#paint0_linear_2463_4991)"/>
<defs>
<linearGradient id="paint0_linear_2463_4991" x1="59.9365" y1="25.5812" x2="59.9365" y2="92.5489" gradientUnits="userSpaceOnUse">
<stop stop-color="#5CD843"/>
<stop offset="1" stop-color="#52BE3C"/>
</linearGradient>
</defs>
</svg>
