<svg width="16" height="20" viewBox="0 0 16 20" fill="none" xmlns="http://www.w3.org/2000/svg">
<path d="M7.99512 19.2C8.16853 19.2 8.41905 19.1328 8.66941 19.0082C14.1794 16.1775 16 14.6903 16 11.2552V4.10682C16 2.99368 15.5665 2.59063 14.6225 2.19733C13.5726 1.76549 10.0181 0.508495 8.98743 0.163048C8.67916 0.0670476 8.32274 0 7.99512 0C7.67726 0 7.32084 0.0768 7.01257 0.163048C5.97227 0.489295 2.42743 1.76549 1.37752 2.19733C0.433524 2.58103 0 2.99368 0 4.10667V11.2552C0 14.6903 1.8976 16.0431 7.33059 19.0082C7.58095 19.1424 7.83147 19.2 7.99512 19.2Z" fill="white"/>
<path d="M9.92259 11.3817C9.92259 11.7553 9.77417 12.1136 9.51 12.3778C9.24582 12.6419 8.88752 12.7904 8.51392 12.7904C8.14032 12.7904 7.78202 12.6419 7.51785 12.3778C7.25367 12.1136 7.10526 11.7553 7.10526 11.3817V10.3956C7.10526 10.2835 7.14978 10.1761 7.22903 10.0968C7.30829 10.0176 7.41578 9.97303 7.52786 9.97303C7.63994 9.97303 7.74743 10.0176 7.82668 10.0968C7.90593 10.1761 7.95046 10.2835 7.95046 10.3956V11.3817C7.95046 11.5311 8.00982 11.6745 8.11549 11.7801C8.22116 11.8858 8.36448 11.9452 8.51392 11.9452C8.66336 11.9452 8.80668 11.8858 8.91235 11.7801C9.01802 11.6745 9.07739 11.5311 9.07739 11.3817V9.34758C8.58717 9.18981 8.23219 8.77284 8.23219 8.28263C8.23219 7.66282 8.79565 7.1557 9.49999 7.1557C10.2043 7.1557 10.7678 7.66282 10.7678 8.28263C10.7678 8.77284 10.4128 9.18981 9.92259 9.34758V11.3817ZM6.11919 7.1557C6.82352 7.1557 7.38699 7.66282 7.38699 8.28263C7.38699 8.77284 7.03201 9.18981 6.54179 9.34758V12.3678C6.54179 12.8534 6.73473 13.3192 7.07816 13.6627C7.42158 14.0061 7.88737 14.199 8.37306 14.199C8.85874 14.199 9.32453 14.0061 9.66795 13.6627C10.0114 13.3192 10.2043 12.8534 10.2043 12.3678V10.3956C10.2043 10.2835 10.2488 10.1761 10.3281 10.0968C10.4073 10.0176 10.5148 9.97303 10.6269 9.97303C10.739 9.97303 10.8465 10.0176 10.9257 10.0968C11.005 10.1761 11.0495 10.2835 11.0495 10.3956V12.3678C11.0495 13.0776 10.7675 13.7584 10.2656 14.2603C9.76367 14.7622 9.0829 15.0442 8.37306 15.0442C7.66321 15.0442 6.98244 14.7622 6.48051 14.2603C5.97858 13.7584 5.69659 13.0776 5.69659 12.3678V9.34758C5.20638 9.18981 4.85139 8.77284 4.85139 8.28263C4.85139 7.66282 5.41486 7.1557 6.11919 7.1557ZM7.13906 6.10202L6.89677 6.92468C6.66575 6.80071 6.40092 6.7331 6.11919 6.7331C5.60644 6.7331 5.15003 6.95848 4.8683 7.30783L4.19214 6.80071C4.54712 6.34994 5.08241 6.02877 5.69659 5.92171V5.8879C5.69659 5.3275 5.91921 4.79005 6.31547 4.39378C6.71174 3.99752 7.24919 3.7749 7.80959 3.7749C8.36999 3.7749 8.90744 3.99752 9.3037 4.39378C9.69997 4.79005 9.92259 5.3275 9.92259 5.8879V5.92171C10.5368 6.02877 11.0721 6.34994 11.427 6.80071L10.7509 7.30783C10.4691 6.95848 10.0127 6.7331 9.49999 6.7331C9.21825 6.7331 8.95342 6.80071 8.7224 6.92468L8.48011 6.10202C8.66606 6.02877 8.8689 5.95552 9.07739 5.92171V5.8879C9.07739 5.18357 8.51392 4.6201 7.80959 4.6201C7.10526 4.6201 6.54179 5.18357 6.54179 5.8879V5.92171C6.75027 5.95552 6.95312 6.02877 7.13906 6.10202ZM9.49999 7.86003C9.19008 7.86003 8.93652 8.05161 8.93652 8.28263C8.93652 8.51365 9.19008 8.70523 9.49999 8.70523C9.80989 8.70523 10.0635 8.51365 10.0635 8.28263C10.0635 8.05161 9.80989 7.86003 9.49999 7.86003ZM6.11919 7.86003C5.80929 7.86003 5.55573 8.05161 5.55573 8.28263C5.55573 8.51365 5.80929 8.70523 6.11919 8.70523C6.4291 8.70523 6.68266 8.51365 6.68266 8.28263C6.68266 8.05161 6.4291 7.86003 6.11919 7.86003Z" fill="black"/>
<path d="M9.92259 11.3817C9.92259 11.7553 9.77417 12.1136 9.51 12.3778C9.24582 12.6419 8.88752 12.7904 8.51392 12.7904C8.14032 12.7904 7.78202 12.6419 7.51785 12.3778C7.25367 12.1136 7.10526 11.7553 7.10526 11.3817V10.3956C7.10526 10.2835 7.14978 10.1761 7.22903 10.0968C7.30829 10.0176 7.41578 9.97303 7.52786 9.97303C7.63994 9.97303 7.74743 10.0176 7.82668 10.0968C7.90593 10.1761 7.95046 10.2835 7.95046 10.3956V11.3817C7.95046 11.5311 8.00982 11.6745 8.11549 11.7801C8.22116 11.8858 8.36448 11.9452 8.51392 11.9452C8.66336 11.9452 8.80668 11.8858 8.91235 11.7801C9.01802 11.6745 9.07739 11.5311 9.07739 11.3817V9.34758C8.58717 9.18981 8.23219 8.77284 8.23219 8.28263C8.23219 7.66282 8.79565 7.1557 9.49999 7.1557C10.2043 7.1557 10.7678 7.66282 10.7678 8.28263C10.7678 8.77284 10.4128 9.18981 9.92259 9.34758V11.3817ZM6.11919 7.1557C6.82352 7.1557 7.38699 7.66282 7.38699 8.28263C7.38699 8.77284 7.03201 9.18981 6.54179 9.34758V12.3678C6.54179 12.8534 6.73473 13.3192 7.07816 13.6627C7.42158 14.0061 7.88737 14.199 8.37306 14.199C8.85874 14.199 9.32453 14.0061 9.66795 13.6627C10.0114 13.3192 10.2043 12.8534 10.2043 12.3678V10.3956C10.2043 10.2835 10.2488 10.1761 10.3281 10.0968C10.4073 10.0176 10.5148 9.97303 10.6269 9.97303C10.739 9.97303 10.8465 10.0176 10.9257 10.0968C11.005 10.1761 11.0495 10.2835 11.0495 10.3956V12.3678C11.0495 13.0776 10.7675 13.7584 10.2656 14.2603C9.76367 14.7622 9.0829 15.0442 8.37306 15.0442C7.66321 15.0442 6.98244 14.7622 6.48051 14.2603C5.97858 13.7584 5.69659 13.0776 5.69659 12.3678V9.34758C5.20638 9.18981 4.85139 8.77284 4.85139 8.28263C4.85139 7.66282 5.41486 7.1557 6.11919 7.1557ZM7.13906 6.10202L6.89677 6.92468C6.66575 6.80071 6.40092 6.7331 6.11919 6.7331C5.60644 6.7331 5.15003 6.95848 4.8683 7.30783L4.19214 6.80071C4.54712 6.34994 5.08241 6.02877 5.69659 5.92171V5.8879C5.69659 5.3275 5.91921 4.79005 6.31547 4.39378C6.71174 3.99752 7.24919 3.7749 7.80959 3.7749C8.36999 3.7749 8.90744 3.99752 9.3037 4.39378C9.69997 4.79005 9.92259 5.3275 9.92259 5.8879V5.92171C10.5368 6.02877 11.0721 6.34994 11.427 6.80071L10.7509 7.30783C10.4691 6.95848 10.0127 6.7331 9.49999 6.7331C9.21825 6.7331 8.95342 6.80071 8.7224 6.92468L8.48011 6.10202C8.66606 6.02877 8.8689 5.95552 9.07739 5.92171V5.8879C9.07739 5.18357 8.51392 4.6201 7.80959 4.6201C7.10526 4.6201 6.54179 5.18357 6.54179 5.8879V5.92171C6.75027 5.95552 6.95312 6.02877 7.13906 6.10202ZM9.49999 7.86003C9.19008 7.86003 8.93652 8.05161 8.93652 8.28263C8.93652 8.51365 9.19008 8.70523 9.49999 8.70523C9.80989 8.70523 10.0635 8.51365 10.0635 8.28263C10.0635 8.05161 9.80989 7.86003 9.49999 7.86003ZM6.11919 7.86003C5.80929 7.86003 5.55573 8.05161 5.55573 8.28263C5.55573 8.51365 5.80929 8.70523 6.11919 8.70523C6.4291 8.70523 6.68266 8.51365 6.68266 8.28263C6.68266 8.05161 6.4291 7.86003 6.11919 7.86003Z" fill="url(#paint0_linear_2463_4981)"/>
<defs>
<linearGradient id="paint0_linear_2463_4981" x1="7.83784" y1="5.04851" x2="7.83784" y2="13.5337" gradientUnits="userSpaceOnUse">
<stop stop-color="#5CD843"/>
<stop offset="1" stop-color="#52BE3C"/>
</linearGradient>
</defs>
</svg>
