<svg width="172" height="16" viewBox="0 0 172 16" fill="none" xmlns="http://www.w3.org/2000/svg">
<path fill-rule="evenodd" clip-rule="evenodd" d="M23.6388 13.4813V4.42214C23.6388 1.7849 23.6388 0.466287 22.8524 0.147633C22.0661 -0.171021 21.1482 0.775587 19.3122 2.6688L16.764 5.29651C16.3534 5.74478 15.1089 5.52524 15.1089 4.74049V4.54175C15.1089 1.86061 15.1089 0.520046 14.3149 0.204347C13.5209 -0.111352 12.6004 0.863228 10.7594 2.81239L2.31599 11.7519C0.599351 13.5694 -0.258968 14.4782 0.0689686 15.239C0.396905 15.9998 1.64692 15.9998 4.14695 15.9998H21.1202C22.3075 15.9998 22.9011 15.9998 23.2699 15.631C23.6388 15.2622 23.6388 14.6685 23.6388 13.4813ZM7.68725 12.4035C7.68725 13.2118 7.0871 13.8671 6.34678 13.8671C5.60646 13.8671 5.00631 13.2118 5.00631 12.4035C5.00631 11.5952 5.60646 10.9399 6.34678 10.9399C7.0871 10.9399 7.68725 11.5952 7.68725 12.4035ZM11.1725 13.8671C11.9128 13.8671 12.513 13.2118 12.513 12.4035C12.513 11.5952 11.9128 10.9399 11.1725 10.9399C10.4322 10.9399 9.83204 11.5952 9.83204 12.4035C9.83204 13.2118 10.4322 13.8671 11.1725 13.8671Z" fill="#252525"/>
<path d="M30.6484 10.67C30.6949 11.5291 30.8906 12.2266 31.2356 12.7627C31.8924 13.7661 33.0501 14.2679 34.7087 14.2679C35.4518 14.2679 36.1285 14.1579 36.7389 13.938C37.9198 13.5118 38.5103 12.749 38.5103 11.6493C38.5103 10.8246 38.2615 10.237 37.7639 9.88647C37.2597 9.54283 36.4702 9.24386 35.3954 8.98957L33.415 8.52566C32.1213 8.22326 31.2057 7.88993 30.6683 7.52567C29.7395 6.89338 29.2751 5.94837 29.2751 4.69066C29.2751 3.32985 29.7295 2.21303 30.6385 1.34019C31.5474 0.467348 32.8345 0.0309274 34.4997 0.0309274C36.0323 0.0309274 37.3327 0.415802 38.4008 1.18555C39.4756 1.94843 40.013 3.17178 40.013 4.8556H38.152C38.0525 4.04462 37.8402 3.42263 37.5151 2.98965C36.9114 2.19928 35.8863 1.8041 34.44 1.8041C33.2724 1.8041 32.4331 2.05839 31.9222 2.56698C31.4114 3.07556 31.156 3.66662 31.156 4.34015C31.156 5.08241 31.4545 5.62535 32.0516 5.96899C32.443 6.18892 33.3287 6.46383 34.7087 6.79372L36.7588 7.27825C37.7473 7.51193 38.5103 7.83151 39.0477 8.237C39.9765 8.9449 40.4409 9.97237 40.4409 11.3194C40.4409 12.9964 39.8505 14.1957 38.6695 14.9173C37.4952 15.639 36.1285 15.9998 34.5694 15.9998C32.7515 15.9998 31.3285 15.5187 30.3001 14.5565C29.2718 13.6012 28.7675 12.3057 28.7874 10.67H30.6484Z" fill="#222222"/>
<path d="M43.9678 0.412366H46.3065L53.6907 12.6802V0.412366H55.5716V15.5565H53.3523L45.8587 3.29892V15.5565H43.9678V0.412366Z" fill="#222222"/>
<path d="M67.2191 9.35039L64.9998 2.65976L62.6413 9.35039H67.2191ZM63.9648 0.412366H66.204L71.5083 15.5565H69.3388L67.856 11.0205H62.074L60.4917 15.5565H58.4615L63.9648 0.412366Z" fill="#222222"/>
<path d="M74.5177 0.412366H81.0958C82.3961 0.412366 83.4444 0.793804 84.2405 1.55668C85.0367 2.31268 85.4347 3.37796 85.4347 4.75251C85.4347 5.93463 85.0798 6.96554 84.3699 7.84526C83.66 8.7181 82.5686 9.15452 81.0958 9.15452H76.4981V15.5565H74.5177V0.412366ZM83.4344 4.76282C83.4344 3.64944 83.0364 2.89343 82.2402 2.49481C81.8023 2.28176 81.2019 2.17523 80.439 2.17523H76.4981V7.42258H80.439C81.328 7.42258 82.0478 7.22671 82.5985 6.83496C83.1558 6.44321 83.4344 5.7525 83.4344 4.76282Z" fill="#222222"/>
<path d="M99.5801 0.412366V2.21647H94.654V15.5565H92.6438V2.21647H87.7177V0.412366H99.5801Z" fill="#222222"/>
<path d="M108.371 0C110.952 0 112.863 0.859095 114.104 2.57728C115.072 3.91747 115.557 5.63223 115.557 7.72155C115.557 9.98268 115.003 11.8624 113.895 13.3606C112.594 15.1201 110.74 15.9998 108.332 15.9998C106.083 15.9998 104.315 15.23 103.027 13.6905C101.88 12.206 101.306 10.3298 101.306 8.06175C101.306 6.01366 101.797 4.26111 102.779 2.80409C104.039 0.934695 105.903 0 108.371 0ZM108.571 14.1648C110.315 14.1648 111.576 13.5187 112.352 12.2266C113.135 10.9277 113.526 9.4363 113.526 7.75247C113.526 5.97243 113.075 4.53946 112.173 3.45356C111.277 2.36767 110.05 1.82472 108.491 1.82472C106.978 1.82472 105.744 2.36423 104.789 3.44325C103.834 4.5154 103.356 6.09957 103.356 8.19577C103.356 9.87272 103.764 11.2885 104.58 12.4431C105.403 13.5909 106.733 14.1648 108.571 14.1648Z" fill="#222222"/>
<path d="M125.254 0C127.834 0 129.745 0.859095 130.986 2.57728C131.954 3.91747 132.439 5.63223 132.439 7.72155C132.439 9.98268 131.885 11.8624 130.777 13.3606C129.476 15.1201 127.622 15.9998 125.214 15.9998C122.965 15.9998 121.197 15.23 119.91 13.6905C118.762 12.206 118.188 10.3298 118.188 8.06175C118.188 6.01366 118.679 4.26111 119.661 2.80409C120.921 0.934695 122.786 0 125.254 0ZM125.453 14.1648C127.198 14.1648 128.458 13.5187 129.234 12.2266C130.017 10.9277 130.409 9.4363 130.409 7.75247C130.409 5.97243 129.957 4.53946 129.055 3.45356C128.16 2.36767 126.932 1.82472 125.373 1.82472C123.86 1.82472 122.626 2.36423 121.671 3.44325C120.716 4.5154 120.238 6.09957 120.238 8.19577C120.238 9.87272 120.646 11.2885 121.462 12.4431C122.285 13.5909 123.615 14.1648 125.453 14.1648Z" fill="#222222"/>
<path d="M135.826 0.412366H137.807V13.7524H145.211V15.5565H135.826V0.412366Z" fill="#222222"/>
<path d="M149.484 10.67C149.531 11.5291 149.726 12.2266 150.071 12.7627C150.728 13.7661 151.886 14.2679 153.544 14.2679C154.287 14.2679 154.964 14.1579 155.575 13.938C156.756 13.5118 157.346 12.749 157.346 11.6493C157.346 10.8246 157.097 10.237 156.6 9.88647C156.095 9.54283 155.306 9.24386 154.231 8.98957L152.251 8.52566C150.957 8.22326 150.041 7.88993 149.504 7.52567C148.575 6.89338 148.111 5.94837 148.111 4.69066C148.111 3.32985 148.565 2.21303 149.474 1.34019C150.383 0.467348 151.67 0.0309274 153.335 0.0309274C154.868 0.0309274 156.168 0.415802 157.237 1.18555C158.311 1.94843 158.849 3.17178 158.849 4.8556H156.988C156.888 4.04462 156.676 3.42263 156.351 2.98965C155.747 2.19928 154.722 1.8041 153.276 1.8041C152.108 1.8041 151.269 2.05839 150.758 2.56698C150.247 3.07556 149.992 3.66662 149.992 4.34015C149.992 5.08241 150.29 5.62535 150.887 5.96899C151.279 6.18892 152.164 6.46383 153.544 6.79372L155.594 7.27825C156.583 7.51193 157.346 7.83151 157.883 8.237C158.812 8.9449 159.277 9.97237 159.277 11.3194C159.277 12.9964 158.686 14.1957 157.505 14.9173C156.331 15.639 154.964 15.9998 153.405 15.9998C151.587 15.9998 150.164 15.5187 149.136 14.5565C148.107 13.6012 147.603 12.3057 147.623 10.67H149.484Z" fill="#222222"/>
<path d="M167.795 9.2406C168.72 9.2406 169.517 9.5849 170.187 10.2373C170.84 10.8896 171.184 11.687 171.184 12.6111C171.184 13.5534 170.84 14.3508 170.187 15.0031C169.517 15.6736 168.72 15.9998 167.795 15.9998C166.853 15.9998 166.056 15.6736 165.403 15.0031C164.751 14.3508 164.425 13.5534 164.425 12.6111C164.425 11.687 164.751 10.8896 165.403 10.2373C166.056 9.5849 166.853 9.2406 167.795 9.2406ZM167.795 9.82048C167.016 9.82048 166.364 10.0923 165.82 10.6359C165.277 11.1796 165.005 11.85 165.005 12.6111C165.005 13.3903 165.277 14.0427 165.82 14.5863C166.364 15.13 167.016 15.4018 167.795 15.4018C168.556 15.4018 169.227 15.13 169.771 14.5863C170.314 14.0427 170.586 13.3903 170.586 12.6111C170.586 11.85 170.314 11.1796 169.771 10.6359C169.227 10.0923 168.556 9.82048 167.795 9.82048ZM166.382 10.7265H167.723C168.828 10.7265 169.39 11.1071 169.39 11.8319C169.39 12.2668 169.154 12.5749 168.701 12.7199C168.937 12.8286 169.1 12.9554 169.191 13.1185C169.263 13.2816 169.318 13.5716 169.336 13.9702C169.336 14.1696 169.354 14.3326 169.426 14.4776H168.556C168.502 14.387 168.466 14.2058 168.466 13.9521C168.448 13.5897 168.393 13.3541 168.285 13.2454C168.176 13.1367 167.958 13.0823 167.632 13.0823H167.27V14.4776H166.382V10.7265ZM167.27 12.3937H167.687C168.23 12.3937 168.502 12.2306 168.502 11.9044C168.502 11.5782 168.23 11.4151 167.687 11.4151H167.27V12.3937Z" fill="#252525"/>
</svg>
