<svg width="150" height="16" viewBox="0 0 150 16" fill="none" xmlns="http://www.w3.org/2000/svg">
<path d="M19.9824 0.599616C20.5177 0.183264 21.1953 -0.191108 21.9345 0.108405C22.6739 0.408044 22.8997 1.14865 22.9941 1.82032C23.0927 2.52226 23.0908 3.49008 23.0908 4.67676V12.9922C23.0908 13.5172 23.0929 13.9817 23.0429 14.3535C22.9902 14.7453 22.8688 15.138 22.5488 15.458C22.2287 15.7778 21.836 15.8985 21.4443 15.9512C21.0724 16.0011 20.608 16 20.083 16H4.50387C3.38012 16 2.45854 16.0023 1.7861 15.9063C1.1355 15.8133 0.427001 15.5903 0.12106 14.8809C-0.184536 14.1714 0.140402 13.5036 0.519497 12.9668C0.911405 12.4121 1.5459 11.7435 2.31735 10.9268L10.0673 2.72169C10.8959 1.84441 11.5691 1.12863 12.1298 0.679694C12.6644 0.251803 13.3454 -0.139088 14.0937 0.15821C14.8422 0.455805 15.0692 1.20748 15.164 1.88575C15.2635 2.59718 15.2617 3.58013 15.2617 4.78712V4.93165C15.2801 4.94371 15.3122 4.96286 15.3632 4.97657C15.4378 4.99652 15.5144 4.99772 15.5693 4.98829C15.5826 4.98598 15.5923 4.98247 15.5986 4.98048L17.9238 2.58301C18.75 1.73109 19.4229 1.03489 19.9824 0.599616ZM6.5234 10.6592C5.84399 10.6593 5.29293 11.2611 5.29293 12.0029C5.29318 12.7446 5.84414 13.3456 6.5234 13.3457C7.20277 13.3457 7.75363 12.7446 7.75387 12.0029C7.75387 11.261 7.20292 10.6592 6.5234 10.6592ZM10.9521 10.6592C10.2728 10.6595 9.72262 11.2612 9.72262 12.0029C9.72286 12.7445 10.273 13.3454 10.9521 13.3457C11.6315 13.3457 12.1823 12.7446 12.1826 12.0029C12.1826 11.261 11.6316 10.6592 10.9521 10.6592Z" fill="#1E3A8A"/>
<path d="M32.0985 10.9273C32.194 11.6201 32.3815 12.138 32.6612 12.481C33.1727 13.1053 34.0491 13.4174 35.2903 13.4174C36.0337 13.4174 36.6373 13.335 37.1011 13.1704C37.9809 12.8549 38.4207 12.2684 38.4207 11.4109C38.4207 10.9102 38.2025 10.5226 37.766 10.2482C37.3295 9.98071 36.6441 9.74405 35.7098 9.53826L34.1138 9.17814C32.5452 8.82144 31.4608 8.43387 30.8606 8.01543C29.8444 7.31576 29.3363 6.22165 29.3363 4.73312C29.3363 3.37492 29.8274 2.24652 30.8095 1.34791C31.7916 0.449303 33.234 0 35.1369 0C36.7259 0 38.0797 0.425295 39.1982 1.27588C40.3236 2.11961 40.9135 3.34748 40.9681 4.95949H37.9399C37.8854 4.04716 37.4898 3.39893 36.7532 3.01479C36.2622 2.76099 35.6518 2.63408 34.922 2.63408C34.1104 2.63408 33.4625 2.79871 32.9783 3.12797C32.4941 3.45723 32.2519 3.91683 32.2519 4.50675C32.2519 5.04866 32.4907 5.45338 32.9681 5.7209C33.275 5.89925 33.9297 6.10847 34.9323 6.34855L37.5307 6.97621C38.6697 7.25059 39.529 7.61758 40.1087 8.07717C41.009 8.79057 41.4591 9.82294 41.4591 11.1743C41.4591 12.5599 40.9306 13.7123 39.8734 14.6315C38.8231 15.5438 37.3363 16 35.4131 16C33.4489 16 31.9041 15.5507 30.7788 14.6521C29.6535 13.7466 29.0908 12.505 29.0908 10.9273H32.0985Z" fill="#1E3A8A"/>
<path d="M43.7404 0.442444H47.0448L53.0499 11.0302V0.442444H55.986V15.609H52.8351L46.6765 4.83601V15.609H43.7404V0.442444Z" fill="#1E3A8A"/>
<path d="M63.055 9.87781H66.8811L64.9988 3.90997L63.055 9.87781ZM63.2494 0.442444H66.8095L72.1496 15.609H68.7328L67.7609 12.4913H62.2059L61.1624 15.609H57.8683L63.2494 0.442444Z" fill="#1E3A8A"/>
<path d="M82.564 5.26817C82.564 4.47931 82.356 3.91683 81.9399 3.58071C81.5307 3.24459 80.9544 3.07653 80.211 3.07653H77.275V7.54212H80.211C80.9544 7.54212 81.5307 7.36034 81.9399 6.99678C82.356 6.63323 82.564 6.05702 82.564 5.26817ZM85.6842 5.24759C85.6842 7.03794 85.2341 8.30354 84.3338 9.04437C83.4335 9.78521 82.1479 10.1556 80.477 10.1556H77.275V15.609H74.1445V0.442444H80.7123C82.2264 0.442444 83.4335 0.83344 84.3338 1.61543C85.2341 2.39743 85.6842 3.60815 85.6842 5.24759Z" fill="#1E3A8A"/>
<path d="M98.0422 0.442444H102.574V15.609H99.6381V5.35048C99.6381 5.05552 99.6416 4.64394 99.6484 4.11576C99.6552 3.58071 99.6586 3.16913 99.6586 2.88103L96.8044 15.609H93.7456L90.9118 2.88103C90.9118 3.16913 90.9152 3.58071 90.922 4.11576C90.9288 4.64394 90.9323 5.05552 90.9323 5.35048V15.609H87.9962V0.442444H92.5793L95.321 12.3678L98.0422 0.442444Z" fill="#1E3A8A"/>
<path d="M109.623 9.87781H113.449L111.567 3.90997L109.623 9.87781ZM109.817 0.442444H113.377L118.717 15.609H115.301L114.329 12.4913H108.774L107.73 15.609H104.436L109.817 0.442444Z" fill="#1E3A8A"/>
<path d="M123.526 15.609H120.395V0.442444H123.526V15.609Z" fill="#1E3A8A"/>
<path d="M126.472 0.442444H129.623V12.8823H137.091V15.609H126.472V0.442444Z" fill="#1E3A8A"/>
<path d="M146.185 9.7959C147.033 9.7959 147.765 10.1119 148.38 10.7107C148.979 11.3095 149.295 12.0413 149.295 12.8896C149.295 13.7545 148.979 14.4864 148.38 15.0851C147.765 15.7006 147.033 15.9999 146.185 15.9999C145.32 15.9999 144.588 15.7006 143.989 15.0851C143.39 14.4864 143.091 13.7545 143.091 12.8896C143.091 12.0413 143.39 11.3095 143.989 10.7107C144.588 10.1119 145.32 9.7959 146.185 9.7959ZM146.185 10.3281C145.469 10.3281 144.871 10.5776 144.372 11.0766C143.873 11.5756 143.623 12.191 143.623 12.8896C143.623 13.6048 143.873 14.2036 144.372 14.7026C144.871 15.2016 145.469 15.4511 146.185 15.4511C146.883 15.4511 147.499 15.2016 147.998 14.7026C148.496 14.2036 148.746 13.6048 148.746 12.8896C148.746 12.191 148.496 11.5756 147.998 11.0766C147.499 10.5776 146.883 10.3281 146.185 10.3281ZM144.887 11.1598H146.118C147.133 11.1598 147.648 11.5091 147.648 12.1744C147.648 12.5736 147.432 12.8563 147.016 12.9894C147.232 13.0892 147.382 13.2056 147.465 13.3553C147.532 13.505 147.582 13.7711 147.598 14.1371C147.598 14.32 147.615 14.4697 147.681 14.6028H146.883C146.833 14.5196 146.8 14.3533 146.8 14.1204C146.783 13.7878 146.733 13.5716 146.634 13.4718C146.534 13.372 146.334 13.3221 146.035 13.3221H145.702V14.6028H144.887V11.1598ZM145.702 12.69H146.085C146.584 12.69 146.833 12.5403 146.833 12.2409C146.833 11.9415 146.584 11.7918 146.085 11.7918H145.702V12.69Z" fill="#1E3A8A"/>
</svg>
