<svg width="148" height="16" viewBox="0 0 148 16" fill="none" xmlns="http://www.w3.org/2000/svg">
<path d="M19.9824 0.599372C20.5177 0.18302 21.1953 -0.191352 21.9345 0.108161C22.6739 0.4078 22.8997 1.1484 22.9941 1.82007C23.0927 2.52202 23.0908 3.48984 23.0908 4.67652V12.9919C23.0908 13.5169 23.0929 13.9815 23.0429 14.3533C22.9902 14.745 22.8688 15.1378 22.5488 15.4578C22.2287 15.7776 21.836 15.8982 21.4443 15.9509C21.0724 16.0009 20.608 15.9998 20.083 15.9998H4.50387C3.38012 15.9998 2.45854 16.002 1.7861 15.906C1.1355 15.8131 0.427001 15.59 0.12106 14.8806C-0.184536 14.1712 0.140402 13.5033 0.519497 12.9666C0.911405 12.4118 1.5459 11.7433 2.31735 10.9265L10.0673 2.72144C10.8959 1.84416 11.5691 1.12839 12.1298 0.67945C12.6644 0.251559 13.3454 -0.139332 14.0937 0.157966C14.8422 0.455561 15.0692 1.20724 15.164 1.8855C15.2635 2.59693 15.2617 3.57989 15.2617 4.78687V4.9314C15.2801 4.94347 15.3122 4.96262 15.3632 4.97632C15.4378 4.99628 15.5144 4.99747 15.5693 4.98804C15.5826 4.98574 15.5923 4.98222 15.5986 4.98023L17.9238 2.58277C18.75 1.73084 19.4229 1.03465 19.9824 0.599372ZM6.5234 10.6589C5.84399 10.6591 5.29293 11.2608 5.29293 12.0027C5.29318 12.7443 5.84414 13.3453 6.5234 13.3455C7.20277 13.3455 7.75363 12.7444 7.75387 12.0027C7.75387 11.2608 7.20292 10.6589 6.5234 10.6589ZM10.9521 10.6589C10.2728 10.6592 9.72262 11.2609 9.72262 12.0027C9.72286 12.7442 10.273 13.3452 10.9521 13.3455C11.6315 13.3455 12.1823 12.7444 12.1826 12.0027C12.1826 11.2608 11.6316 10.6589 10.9521 10.6589Z" fill="#064E3B"/>
<path d="M31.4524 10.9201C31.5485 11.6125 31.7374 12.13 32.0189 12.4728C32.5339 13.0966 33.4163 13.4085 34.6661 13.4085C35.4146 13.4085 36.0224 13.3263 36.4893 13.1617C37.3751 12.8464 37.8181 12.2603 37.8181 11.4034C37.8181 10.903 37.5983 10.5157 37.1588 10.2415C36.7193 9.97413 36.0292 9.73763 35.0884 9.53197L33.4816 9.17208C31.9022 8.81562 30.8103 8.42831 30.206 8.01015C29.1829 7.31093 28.6713 6.21755 28.6713 4.73C28.6713 3.37269 29.1657 2.24504 30.1545 1.34702C31.1434 0.449007 32.5957 0 34.5116 0C36.1116 0 37.4747 0.425014 38.6009 1.27504C39.7339 2.11822 40.3279 3.34527 40.3829 4.95622H37.3339C37.279 4.04449 36.8807 3.39669 36.1391 3.0128C35.6447 2.75917 35.0301 2.63235 34.2953 2.63235C33.4781 2.63235 32.8258 2.79687 32.3382 3.12591C31.8507 3.45496 31.6069 3.91424 31.6069 4.50378C31.6069 5.04533 31.8472 5.44978 32.3279 5.71713C32.6369 5.89536 33.2962 6.10444 34.3056 6.34437L36.9219 6.97161C38.0687 7.24581 38.9339 7.61255 39.5176 8.07184C40.4241 8.78477 40.8773 9.81646 40.8773 11.1669C40.8773 12.5516 40.3451 13.7033 39.2807 14.6219C38.2232 15.5336 36.7262 15.9894 34.7897 15.9894C32.8121 15.9894 31.2567 15.5404 30.1236 14.6424C28.9906 13.7376 28.4241 12.4968 28.4241 10.9201H31.4524Z" fill="#064E3B"/>
<path d="M43.1743 0.442152H46.5013L52.5477 11.023V0.442152H55.5039V15.5987H52.3314L46.1305 4.83282V15.5987H43.1743V0.442152Z" fill="#064E3B"/>
<path d="M62.6215 9.8713H66.4739L64.5786 3.90739L62.6215 9.8713ZM62.8172 0.442152H66.4018L71.7786 15.5987H68.3382L67.3597 12.4831H61.7666L60.7159 15.5987H57.3992L62.8172 0.442152Z" fill="#064E3B"/>
<path d="M82.2644 5.26469C82.2644 4.47636 82.055 3.91424 81.6361 3.57835C81.2241 3.24245 80.6438 3.0745 79.8953 3.0745H76.9391V7.53715H79.8953C80.6438 7.53715 81.2241 7.35549 81.6361 6.99217C82.055 6.62885 82.2644 6.05303 82.2644 5.26469ZM85.406 5.24413C85.406 7.0333 84.9528 8.29806 84.0464 9.03841C83.14 9.77876 81.8455 10.1489 80.1631 10.1489H76.9391V15.5987H73.7872V0.442152H80.4C81.9245 0.442152 83.14 0.832891 84.0464 1.61437C84.9528 2.39585 85.406 3.60577 85.406 5.24413Z" fill="#064E3B"/>
<path d="M90.0824 10.9201C90.1786 11.6125 90.3674 12.13 90.649 12.4728C91.164 13.0966 92.0464 13.4085 93.2962 13.4085C94.0447 13.4085 94.6524 13.3263 95.1194 13.1617C96.0052 12.8464 96.4481 12.2603 96.4481 11.4034C96.4481 10.903 96.2284 10.5157 95.7889 10.2415C95.3494 9.97413 94.6593 9.73763 93.7185 9.53197L92.1116 9.17208C90.5322 8.81562 89.4404 8.42831 88.8361 8.01015C87.8129 7.31093 87.3013 6.21755 87.3013 4.73C87.3013 3.37269 87.7957 2.24504 88.7846 1.34702C89.7734 0.449007 91.2258 0 93.1417 0C94.7417 0 96.1048 0.425014 97.2309 1.27504C98.364 2.11822 98.958 3.34527 99.0129 4.95622H95.964C95.9091 4.04449 95.5108 3.39669 94.7691 3.0128C94.2747 2.75917 93.6601 2.63235 92.9254 2.63235C92.1082 2.63235 91.4558 2.79687 90.9683 3.12591C90.4807 3.45496 90.2369 3.91424 90.2369 4.50378C90.2369 5.04533 90.4773 5.44978 90.958 5.71713C91.267 5.89536 91.9262 6.10444 92.9357 6.34437L95.552 6.97161C96.6987 7.24581 97.564 7.61255 98.1477 8.07184C99.0541 8.78477 99.5073 9.81646 99.5073 11.1669C99.5073 12.5516 98.9751 13.7033 97.9108 14.6219C96.8533 15.5336 95.3563 15.9894 93.4198 15.9894C91.4421 15.9894 89.8867 15.5404 88.7537 14.6424C87.6206 13.7376 87.0541 12.4968 87.0541 10.9201H90.0824Z" fill="#064E3B"/>
<path d="M104.761 15.5987H101.609V0.442152H104.761V15.5987Z" fill="#064E3B"/>
<path d="M117.935 5.17215C117.694 4.13703 117.107 3.41382 116.173 3.00252C115.652 2.7763 115.071 2.66319 114.433 2.66319C113.21 2.66319 112.204 3.12591 111.415 4.05135C110.632 4.96993 110.24 6.35465 110.24 8.20552C110.24 10.0701 110.666 11.3897 111.518 12.1643C112.369 12.9389 113.337 13.3263 114.422 13.3263C115.487 13.3263 116.359 13.0212 117.039 12.4111C117.718 11.7941 118.137 10.9887 118.295 9.99469H114.783V7.46517H121.107V15.5987H119.006L118.687 13.7067C118.076 14.4265 117.526 14.9338 117.039 15.2285C116.201 15.7427 115.171 15.9997 113.949 15.9997C111.937 15.9997 110.288 15.3039 109.004 13.9124C107.665 12.5139 106.996 10.6014 106.996 8.17467C106.996 5.72056 107.672 3.75315 109.025 2.27246C110.378 0.791761 112.167 0.051413 114.391 0.051413C116.321 0.051413 117.87 0.541551 119.037 1.52183C120.211 2.49525 120.884 3.71202 121.056 5.17215H117.935Z" fill="#064E3B"/>
<path d="M124.094 0.442152H127.421L133.468 11.023V0.442152H136.424V15.5987H133.252L127.051 4.83282V15.5987H124.094V0.442152Z" fill="#064E3B"/>
<path d="M144.851 9.79565C145.699 9.79565 146.431 10.1117 147.047 10.7105C147.645 11.3092 147.961 12.0411 147.961 12.8894C147.961 13.7543 147.645 14.4861 147.047 15.0849C146.431 15.7003 145.699 15.9997 144.851 15.9997C143.986 15.9997 143.254 15.7003 142.655 15.0849C142.057 14.4861 141.757 13.7543 141.757 12.8894C141.757 12.0411 142.057 11.3092 142.655 10.7105C143.254 10.1117 143.986 9.79565 144.851 9.79565ZM144.851 10.3279C144.136 10.3279 143.537 10.5774 143.038 11.0764C142.539 11.5754 142.29 12.1908 142.29 12.8894C142.29 13.6046 142.539 14.2034 143.038 14.7023C143.537 15.2013 144.136 15.4508 144.851 15.4508C145.55 15.4508 146.165 15.2013 146.664 14.7023C147.163 14.2034 147.412 13.6046 147.412 12.8894C147.412 12.1908 147.163 11.5754 146.664 11.0764C146.165 10.5774 145.55 10.3279 144.851 10.3279ZM143.554 11.1595H144.784C145.799 11.1595 146.315 11.5088 146.315 12.1742C146.315 12.5733 146.098 12.8561 145.683 12.9892C145.899 13.089 146.049 13.2054 146.132 13.3551C146.198 13.5048 146.248 13.7709 146.265 14.1368C146.265 14.3198 146.281 14.4695 146.348 14.6025H145.55C145.5 14.5194 145.466 14.3531 145.466 14.1202C145.45 13.7875 145.4 13.5713 145.3 13.4715C145.2 13.3717 145.001 13.3218 144.701 13.3218H144.369V14.6025H143.554V11.1595ZM144.369 12.6898H144.751C145.25 12.6898 145.5 12.5401 145.5 12.2407C145.5 11.9413 145.25 11.7916 144.751 11.7916H144.369V12.6898Z" fill="#064E3B"/>
</svg>
