<svg width="245" height="53" viewBox="0 0 245 53" fill="none" xmlns="http://www.w3.org/2000/svg">
<path d="M19.6556 0C8.77483 0 0 8.77483 0 20.0066C0 24.5695 1.40397 28.7814 4.21192 32.2914L20.0066 51.947L35.8013 32.2914C38.6093 28.7814 40.0132 24.5695 40.0132 20.0066C39.3112 8.77483 30.5364 0 19.6556 0Z" fill="#B42025"/>
<path d="M27.7308 25.2713C26.6778 25.2713 25.9758 25.9733 25.9758 27.0262C25.9758 28.0792 26.6778 28.7812 27.7308 28.7812C28.7838 28.7812 29.4858 28.0792 29.4858 27.0262C29.4858 26.3243 28.7838 25.2713 27.7308 25.2713Z" fill="white"/>
<path d="M11.2327 25.2712C10.1798 25.2712 9.47778 25.9732 9.47778 27.0262C9.47778 28.0792 10.1798 28.7812 11.2327 28.7812C12.2857 28.7812 12.9877 28.0792 12.9877 27.0262C12.9877 26.3242 12.2857 25.2712 11.2327 25.2712Z" fill="white"/>
<path d="M19.6546 1.05298C9.47584 1.05298 1.052 9.47682 1.052 19.6556C1.052 23.8675 2.45597 27.7285 4.91293 31.2384L19.6546 49.841L34.3964 31.2384C36.8533 28.0795 38.2573 23.8675 38.2573 19.6556C38.2573 9.47682 29.8334 1.05298 19.6546 1.05298ZM31.9394 29.8344L19.3036 45.2781L6.66789 29.8344C4.56193 27.0265 3.15796 23.8675 3.15796 20.0066C3.15796 11.2318 10.1778 4.21192 18.9527 4.21192C27.7275 4.21192 34.7473 11.2318 34.7473 20.0066C35.4493 23.5166 34.0454 27.0265 31.9394 29.8344Z" fill="white"/>
<path d="M16.4972 9.47656C16.1462 9.47656 15.7952 9.82755 15.7952 10.1785H17.5501C17.1991 9.82755 16.8481 9.47656 16.4972 9.47656Z" fill="white"/>
<path d="M19.6583 9.47653C19.3073 9.47653 18.9563 9.82752 18.9563 10.1785H20.3603C20.3603 9.82752 20.0093 9.47653 19.6583 9.47653Z" fill="white"/>
<path d="M22.4639 9.47653C22.113 9.47653 21.762 9.82752 21.762 10.1785H23.5169C23.5169 9.82752 23.1659 9.47653 22.4639 9.47653Z" fill="white"/>
<path d="M29.1334 11.5827C29.1334 11.5827 25.9745 10.8807 19.6566 10.8807C13.3387 10.8807 10.1798 11.5827 10.1798 11.5827L9.47778 17.9006C9.47778 17.9006 11.9347 17.1986 19.6566 17.1986C27.3784 17.1986 29.8354 17.9006 29.8354 17.9006L29.1334 11.5827Z" fill="white"/>
<path d="M17.2003 35.801V20.0063C17.5513 20.0063 18.2533 20.0063 18.6043 20.0063V36.503C18.9552 36.503 19.3062 36.503 19.3062 36.503C19.6572 36.503 20.0082 36.503 20.0082 36.503V20.0063C20.3592 20.0063 21.0612 20.0063 21.4122 20.0063V35.801C22.1142 35.45 22.8162 35.45 23.1672 35.099V18.6023C23.1672 18.6023 20.7102 18.2514 19.3062 18.2514C17.9023 18.2514 15.4453 18.6023 15.4453 18.6023V35.099C16.1473 35.099 16.4983 35.45 17.2003 35.801Z" fill="white"/>
<path d="M62.1247 37.5562C60.0187 37.9072 59.3168 37.9072 57.9128 37.9072C52.6479 37.9072 49.8399 35.0992 49.8399 29.4833V12.2847H44.926V8.77475H49.8399V1.75488H54.4028V8.77475H60.7207V12.2847H54.4028V29.8343C54.4028 32.6423 55.8068 34.3973 58.9658 34.3973C60.0187 34.3973 60.7207 34.3973 62.4757 34.0463L62.1247 37.5562Z" fill="#3A3A3A"/>
<path d="M64.585 37.2053V8.77485H68.4459V15.4437C69.8499 12.6358 70.2009 11.9338 71.2538 10.5298C72.6578 9.12584 74.7638 8.07286 76.8697 8.07286C77.2207 8.07286 77.9227 8.07286 78.6247 8.07286V12.2848C73.3598 11.9338 69.1479 16.1457 69.1479 22.1126V37.2053H64.585Z" fill="#3A3A3A"/>
<path d="M98.9828 37.2052V31.5893C96.8768 35.4503 94.0689 37.5562 89.8569 37.5562C84.241 37.5562 80.3801 33.3443 80.3801 26.6754V8.77478H84.943V27.0264C84.943 29.4834 85.294 31.2384 86.347 32.2913C87.4 33.6953 88.804 34.3973 90.5589 34.3973C94.7708 34.3973 98.2808 30.1854 98.2808 24.9205V9.12577H102.844V37.5562L98.9828 37.2052Z" fill="#3A3A3A"/>
<path d="M128.463 27.7285C127.761 31.2384 127.059 32.9934 125.304 34.7484C123.198 36.8543 120.741 37.9073 117.582 37.9073C110.212 37.9073 105.649 31.9404 105.649 23.1656C105.649 14.0398 110.563 8.07288 117.933 8.07288C123.9 8.07288 127.41 11.5828 128.463 17.9007L124.602 18.6027C124.251 16.4967 123.9 15.4437 123.198 14.3908C121.794 12.6358 120.039 11.5828 117.933 11.5828C113.371 11.5828 110.212 15.7947 110.212 22.8146C110.212 29.8345 113.02 34.0464 117.582 34.0464C121.092 34.0464 123.549 31.5894 124.602 27.0265L128.463 27.7285Z" fill="#3A3A3A"/>
<path d="M149.523 37.2052L141.1 21.4105L135.133 28.4304V37.2052H130.57V1.75491H135.133V23.1655L148.119 8.77478H153.033L143.908 18.9536L154.086 37.2052H149.523Z" fill="#3A3A3A"/>
<path d="M157.245 28.7815C157.596 30.5364 157.947 31.2384 159 31.9404C160.755 33.3444 163.212 34.0464 166.019 34.0464C169.88 34.0464 172.688 32.2914 172.688 29.4835C172.688 27.0265 170.933 25.6225 167.774 25.2715L161.808 24.2186C156.894 23.1656 154.086 20.3576 154.086 16.4967C154.086 11.5828 158.298 8.07286 164.616 8.07286C170.582 8.07286 174.443 10.5298 175.847 15.0927L171.986 15.7947C170.582 12.6358 168.476 11.2318 164.616 11.2318C161.106 11.2318 158.649 12.9868 158.649 15.4437C158.649 17.5497 160.053 18.9537 163.212 19.3046L168.827 20.3576C174.794 21.4106 177.251 24.2186 177.251 28.7815C177.251 34.0464 172.688 37.5563 165.668 37.5563C161.808 37.5563 158.298 36.5033 155.841 34.3974C154.437 32.9934 153.735 31.9404 153.033 29.4835L157.245 28.7815Z" fill="#3A3A3A"/>
<path d="M219.021 23.1656C219.021 31.5894 213.405 37.9073 206.034 37.9073C198.663 37.9073 193.749 31.9404 193.749 22.8146C193.749 14.0398 199.014 8.07288 206.385 8.07288C213.756 8.07288 219.021 14.0398 219.021 23.1656ZM200.067 14.7418C198.663 16.4967 197.961 19.3047 197.961 22.8146C197.961 30.1855 200.769 34.3974 205.683 34.3974C210.597 34.3974 213.756 30.1855 213.756 23.1656C213.756 19.3047 213.054 16.8477 211.65 14.7418C210.246 12.9868 207.789 11.5828 205.683 11.5828C203.928 11.5828 201.471 12.9868 200.067 14.7418Z" fill="#3A3A3A"/>
<path d="M221.126 52.649V8.77487H224.987V14.3908C227.093 10.1788 229.901 8.07288 233.762 8.07288C240.431 8.07288 244.994 14.0398 244.994 22.8146C244.994 31.5894 240.431 37.9073 233.762 37.9073C229.901 37.9073 227.795 36.5033 225.338 32.9934V53L221.126 52.649ZM225.689 26.6755C226.391 30.8874 229.55 34.0464 233.06 34.0464C234.815 34.0464 236.921 32.9934 238.325 31.2384C239.729 29.4835 240.431 26.6755 240.431 22.8146C240.431 15.7947 237.623 11.5828 233.06 11.5828C229.55 11.5828 226.742 14.3908 225.689 18.6027V26.6755Z" fill="#3A3A3A"/>
<path d="M194.1 37.5562C191.994 37.9072 191.292 37.9072 189.888 37.9072C184.623 37.9072 181.816 35.0993 181.816 29.4834V12.2847H176.902V8.77478H181.816V1.75491H186.027V8.77478H192.345V12.2847H186.027V29.8344C186.027 32.6423 187.782 34.3973 190.59 34.3973C191.643 34.3973 192.345 34.3973 194.1 34.0463V37.5562Z" fill="#3A3A3A"/>
<path d="M181.114 50.1921H178.657V52.6491H181.114V50.1921Z" fill="#676767"/>
<path d="M190.592 49.1388C190.241 50.1918 190.241 50.8938 189.539 51.2448C188.837 52.2978 187.784 52.6488 186.38 52.6488C183.572 52.6488 182.168 50.5428 182.168 47.3839C182.168 44.2249 183.923 42.119 186.731 42.119C188.135 42.119 189.188 42.47 189.89 43.523C190.592 44.2249 190.592 44.5759 190.943 45.6289L188.837 45.9799C188.837 44.5759 188.135 44.2249 187.082 44.2249C185.678 44.2249 184.976 45.6289 184.976 47.7349C184.976 49.8408 185.678 50.8938 187.082 50.8938C188.135 50.8938 188.837 50.1918 189.188 48.7878L190.592 49.1388Z" fill="#676767"/>
<path d="M200.067 44.5759C200.769 45.6289 200.769 46.3309 200.769 47.7349C200.769 50.8938 198.663 52.9998 195.855 52.9998C194.1 52.9998 193.047 52.2978 192.345 51.2448C191.643 50.1918 191.292 49.1388 191.292 47.7349C191.292 44.5759 193.398 42.47 196.206 42.47C197.961 42.47 199.014 43.1719 200.067 44.5759ZM193.749 47.7349C193.749 49.8408 194.451 51.2448 196.206 51.2448C197.61 51.2448 198.663 49.8408 198.663 47.7349C198.663 45.6289 197.961 44.2249 196.206 44.2249C194.451 44.2249 193.749 45.6289 193.749 47.7349Z" fill="#676767"/>
<path d="M214.456 52.6488V46.3309C214.456 44.9269 213.754 44.2249 212.701 44.2249C211.297 44.2249 210.595 45.2779 210.595 47.3839V52.6488H208.138V46.3309C208.138 45.6289 208.138 45.6289 207.787 45.2779C207.436 44.9269 207.085 44.5759 206.383 44.5759C204.98 44.5759 203.927 45.9799 203.927 47.7349V52.9998H201.821V42.821H203.927V44.9269C204.278 44.2249 204.629 43.8739 204.98 43.172C205.681 42.821 206.383 42.47 207.436 42.47C208.84 42.47 209.893 43.172 210.244 44.9269C210.946 43.172 212.35 42.47 213.754 42.47C215.509 42.47 216.913 43.8739 216.913 45.6289V52.9998L214.456 52.6488Z" fill="#676767"/>
</svg>
