<svg width="192" height="192" viewBox="0 0 192 192" fill="none" xmlns="http://www.w3.org/2000/svg">
<rect width="192" height="192" rx="12" fill="#252525"/>
<path fill-rule="evenodd" clip-rule="evenodd" d="M134.672 124.269V77.1797C134.672 63.4713 134.672 56.6172 130.585 54.9608C126.498 53.3044 121.726 58.2249 112.183 68.0658L112.183 68.0659L98.9368 81.7247C96.8027 84.0549 90.3338 82.9137 90.3338 78.8346V77.8015C90.3338 63.8649 90.3338 56.8966 86.2065 55.2556C82.0792 53.6146 77.2944 58.6805 67.725 68.8122L23.836 115.28C14.9129 124.728 10.4513 129.451 12.1559 133.406C13.8605 137.361 20.3582 137.361 33.3534 137.361H121.581C127.752 137.361 130.838 137.361 132.755 135.444C134.672 133.526 134.672 130.441 134.672 124.269ZM51.7561 118.664C51.7561 122.866 48.6366 126.272 44.7883 126.272C40.9401 126.272 37.8205 122.866 37.8205 118.664C37.8205 114.463 40.9401 111.057 44.7883 111.057C48.6366 111.057 51.7561 114.463 51.7561 118.664ZM69.8723 126.272C73.7205 126.272 76.8401 122.866 76.8401 118.664C76.8401 114.463 73.7205 111.057 69.8723 111.057C66.0241 111.057 62.9045 114.463 62.9045 118.664C62.9045 122.866 66.0241 126.272 69.8723 126.272Z" fill="white"/>
<path d="M162.588 102.227C167.392 102.227 171.537 104.016 175.022 107.407C178.413 110.798 180.203 114.943 180.203 119.747C180.203 124.645 178.413 128.789 175.022 132.18C171.537 135.665 167.392 137.361 162.588 137.361C157.69 137.361 153.546 135.665 150.155 132.18C146.764 128.789 145.068 124.645 145.068 119.747C145.068 114.943 146.764 110.798 150.155 107.407C153.546 104.016 157.69 102.227 162.588 102.227ZM162.588 105.241C158.538 105.241 155.147 106.654 152.321 109.48C149.495 112.305 148.082 115.791 148.082 119.747C148.082 123.797 149.495 127.188 152.321 130.014C155.147 132.84 158.538 134.253 162.588 134.253C166.544 134.253 170.03 132.84 172.855 130.014C175.681 127.188 177.094 123.797 177.094 119.747C177.094 115.791 175.681 112.305 172.855 109.48C170.03 106.654 166.544 105.241 162.588 105.241ZM155.241 109.95H162.211C167.957 109.95 170.877 111.929 170.877 115.696C170.877 117.957 169.653 119.558 167.298 120.312C168.522 120.877 169.37 121.536 169.841 122.384C170.218 123.232 170.501 124.739 170.595 126.811C170.595 127.847 170.689 128.695 171.066 129.449H166.544C166.262 128.978 166.073 128.036 166.073 126.717C165.979 124.833 165.697 123.609 165.131 123.043C164.566 122.478 163.436 122.196 161.74 122.196H159.857V129.449H155.241V109.95ZM159.857 118.616H162.023C164.849 118.616 166.262 117.769 166.262 116.073C166.262 114.378 164.849 113.53 162.023 113.53H159.857V118.616Z" fill="white"/>
</svg>
