<svg width="256" height="256" viewBox="0 0 256 256" fill="none" xmlns="http://www.w3.org/2000/svg">
<g clip-path="url(#clip0_894_13483)">
<rect width="256" height="256" fill="#242424"/>
<path fill-rule="evenodd" clip-rule="evenodd" d="M224 172.169V98.5878C224 77.1675 224 66.4573 217.613 63.8691C211.227 61.2809 203.771 68.9695 188.858 84.3468L168.161 105.69C164.826 109.331 154.718 107.548 154.718 101.174V99.5593C154.718 77.7824 154.718 66.8939 148.269 64.3298C141.82 61.7656 134.343 69.6814 119.39 85.513L50.8104 158.122C36.8674 172.885 29.8959 180.266 32.5595 186.445C35.2231 192.625 45.3761 192.625 65.6821 192.625H203.544C213.187 192.625 218.008 192.625 221.004 189.629C224 186.634 224 181.812 224 172.169ZM94.4472 163.415C94.4472 169.98 89.5726 175.303 83.5595 175.303C77.5464 175.303 72.6718 169.98 72.6718 163.415C72.6718 156.85 77.5464 151.527 83.5595 151.527C89.5726 151.527 94.4472 156.85 94.4472 163.415ZM122.747 175.303C128.76 175.303 133.635 169.98 133.635 163.415C133.635 156.85 128.76 151.527 122.747 151.527C116.734 151.527 111.859 156.85 111.859 163.415C111.859 169.98 116.734 175.303 122.747 175.303Z" fill="white"/>
</g>
<defs>
<clipPath id="clip0_894_13483">
<rect width="256" height="256" fill="white"/>
</clipPath>
</defs>
</svg>
