<svg width="48" height="48" viewBox="0 0 48 48" fill="none" xmlns="http://www.w3.org/2000/svg">
<path fill-rule="evenodd" clip-rule="evenodd" d="M32.2246 31.1823V19.9771C32.2246 16.3841 32.2246 14.5876 31.1398 14.1315C30.055 13.6754 28.7712 14.9321 26.2037 17.4454L22.7922 20.7848C22.2289 21.3687 20.5214 21.0827 20.5214 20.0607C20.5214 16.4764 20.5214 14.6843 19.4592 14.2202C19.4371 14.2105 19.4148 14.2013 19.3923 14.1925C18.312 13.7723 17.0479 15.0427 14.5199 17.5836L14.5199 17.5836L3.47563 28.6836C0.91615 31.256 -0.363591 32.5422 0.0901036 33.6336C0.543798 34.7251 2.3582 34.7251 5.98701 34.7251H28.6819C30.3519 34.7251 31.1869 34.7251 31.7057 34.2062C32.2246 33.6874 32.2246 32.8524 32.2246 31.1823ZM11.6121 28.9315C11.6121 29.7314 10.6395 30.3798 9.43963 30.3798C8.23978 30.3798 7.26712 29.7314 7.26712 28.9315C7.26712 28.1316 8.23978 27.4831 9.43963 27.4831C10.6395 27.4831 11.6121 28.1316 11.6121 28.9315ZM16.6813 30.3798C17.8811 30.3798 18.8538 29.7314 18.8538 28.9315C18.8538 28.1316 17.8811 27.4831 16.6813 27.4831C15.4814 27.4831 14.5088 28.1316 14.5088 28.9315C14.5088 29.7314 15.4814 30.3798 16.6813 30.3798Z" fill="#252525"/>
<path d="M43.6434 26.0349C44.8315 26.0349 45.8566 26.4776 46.7186 27.3163C47.5574 28.155 48 29.1801 48 30.3683C48 31.5797 47.5574 32.6048 46.7186 33.4436C45.8566 34.3056 44.8315 34.7249 43.6434 34.7249C42.4319 34.7249 41.4068 34.3056 40.5681 33.4436C39.7294 32.6048 39.31 31.5797 39.31 30.3683C39.31 29.1801 39.7294 28.155 40.5681 27.3163C41.4068 26.4776 42.4319 26.0349 43.6434 26.0349ZM43.6434 26.7804C42.6416 26.7804 41.8028 27.1299 41.1039 27.8288C40.405 28.5278 40.0555 29.3898 40.0555 30.3683C40.0555 31.3701 40.405 32.2088 41.1039 32.9077C41.8028 33.6066 42.6416 33.9561 43.6434 33.9561C44.6219 33.9561 45.4839 33.6066 46.1828 32.9077C46.8817 32.2088 47.2312 31.3701 47.2312 30.3683C47.2312 29.3898 46.8817 28.5278 46.1828 27.8288C45.4839 27.1299 44.6219 26.7804 43.6434 26.7804ZM41.8261 27.9453H43.5502C44.9713 27.9453 45.6935 28.4346 45.6935 29.3665C45.6935 29.9256 45.3907 30.3217 44.8082 30.5081C45.1111 30.6478 45.3208 30.8109 45.4373 31.0206C45.5305 31.2303 45.6004 31.603 45.6237 32.1156C45.6237 32.3719 45.6469 32.5815 45.7401 32.7679H44.6219C44.552 32.6514 44.5054 32.4185 44.5054 32.0923C44.4821 31.6263 44.4122 31.3235 44.2724 31.1837C44.1326 31.0439 43.853 30.974 43.4337 30.974H42.9677V32.7679H41.8261V27.9453ZM42.9677 30.0887H43.5036C44.2025 30.0887 44.552 29.879 44.552 29.4597C44.552 29.0403 44.2025 28.8306 43.5036 28.8306H42.9677V30.0887Z" fill="#252525"/>
</svg>
