<svg width="134" height="32" viewBox="0 0 134 32" fill="none" xmlns="http://www.w3.org/2000/svg">
<rect x="0.489211" y="0.489211" width="133.022" height="30.59" rx="15.295" stroke="#252525" stroke-width="0.978422"/>
<path fill-rule="evenodd" clip-rule="evenodd" d="M28.1912 19.8274V13.524C28.1912 11.5077 28.1912 10.4996 27.5862 10.2498C26.9811 9.99997 26.2699 10.7145 24.8475 12.1435L24.8475 12.1435L23.0354 13.964C22.7275 14.2915 21.7942 14.1311 21.7942 13.5577C21.7942 11.5589 21.7942 10.5594 21.2082 10.3029C21.1916 10.2956 21.1749 10.2889 21.158 10.2825C20.5586 10.0588 19.8629 10.7764 18.4716 12.2115L12.4088 18.4654C11.0354 19.882 10.3487 20.5903 10.6015 21.1873C10.8542 21.7843 11.8407 21.7843 13.8138 21.7843H26.2344C27.1568 21.7843 27.618 21.7843 27.9046 21.4977C28.1912 21.2111 28.1912 20.7499 28.1912 19.8274ZM15.9541 18.7843C15.9541 19.3366 15.5064 19.7843 14.9541 19.7843C14.4018 19.7843 13.9541 19.3366 13.9541 18.7843C13.9541 18.232 14.4018 17.7843 14.9541 17.7843C15.5064 17.7843 15.9541 18.232 15.9541 18.7843ZM18.9541 19.7843C19.5064 19.7843 19.9541 19.3366 19.9541 18.7843C19.9541 18.232 19.5064 17.7843 18.9541 17.7843C18.4018 17.7843 17.9541 18.232 17.9541 18.7843C17.9541 19.3366 18.4018 19.7843 18.9541 19.7843Z" fill="#252525"/>
<path d="M41.2261 13.3906L39.6864 13.4068C39.519 11.8381 38.5316 11.0618 36.7241 11.0618C35.8705 11.0618 35.2011 11.2235 34.7325 11.5632C34.2639 11.8866 34.0296 12.3556 34.0296 12.9702C34.0296 13.1804 34.063 13.3745 34.13 13.5362C34.1969 13.6979 34.3141 13.8273 34.4814 13.9567C34.6488 14.0861 34.7994 14.1831 34.9333 14.2801C35.0839 14.361 35.3182 14.4419 35.6195 14.5227C35.9375 14.6198 36.1885 14.6844 36.3726 14.7168C36.5735 14.7491 36.858 14.8138 37.2596 14.8947C37.7617 14.9917 38.1634 15.0888 38.4814 15.1696C38.8161 15.2505 39.201 15.3799 39.6362 15.5578C40.0881 15.7518 40.4395 15.9459 40.7073 16.1723C40.9751 16.3987 41.1926 16.6898 41.3935 17.0456C41.5943 17.4176 41.678 17.8381 41.678 18.2909C41.678 19.0995 41.4437 19.7788 40.9751 20.3287C40.5065 20.8785 39.9374 21.2505 39.268 21.4607C38.5985 21.6871 37.8621 21.7842 37.0421 21.7842C35.5525 21.7842 34.3643 21.4446 33.4605 20.7653C32.5568 20.0861 32.1049 19.0672 32.1049 17.7249H33.6279C33.6614 18.7114 34.0128 19.423 34.6488 19.8758C35.3015 20.3287 36.1383 20.5551 37.176 20.5551C37.996 20.5551 38.6989 20.3772 39.2847 20.0537C39.8537 19.7303 40.155 19.1966 40.155 18.4526C40.155 18.0968 40.0713 17.8057 39.9207 17.5632C39.7533 17.3206 39.519 17.1265 39.1843 16.9648C38.8496 16.803 38.5149 16.6898 38.1801 16.5928C37.8454 16.4958 37.3935 16.3826 36.858 16.2694C36.7743 16.2532 36.7241 16.237 36.6906 16.2208C35.4521 15.9621 34.6488 15.7357 34.2806 15.5739C33.1091 15.0888 32.54 14.264 32.54 13.0672C32.54 11.9675 32.9584 11.1588 33.7952 10.609C34.6321 10.0591 35.653 9.78418 36.8412 9.78418C38.1467 9.78418 39.201 10.0915 39.9709 10.6898C40.7575 11.3044 41.1759 12.1939 41.2261 13.3906Z" fill="#222222"/>
<path d="M43.5765 10.0106H45.3003L51.5931 19.3583V10.0106H53.1161V21.5254H51.3421L45.0828 12.2909V21.5254H43.5765V10.0106Z" fill="#222222"/>
<path d="M60.7257 10.0106L65.3784 21.5254H63.6211L62.2989 17.9998H57.2948L55.9392 21.5254H54.2656L58.9517 10.0106H60.7257ZM61.8303 16.7869L59.8052 11.4661L57.7467 16.7869H61.8303Z" fill="#222222"/>
<path d="M66.6409 10.0106H71.5279C72.7496 10.0106 73.7203 10.2855 74.44 10.8192C75.1429 11.3529 75.5111 12.1939 75.5111 13.326C75.5111 15.6548 74.1555 16.803 71.4442 16.803H68.2141V21.5254H66.6409V10.0106ZM68.1974 11.3206V15.5254H71.2267C72.0802 15.5254 72.7496 15.3799 73.2183 15.0726C73.6869 14.7653 73.9212 14.2154 73.9212 13.423C73.9212 12.9863 73.8542 12.6144 73.7036 12.3233C73.553 12.0322 73.3354 11.8219 73.0342 11.6764C72.7496 11.547 72.4484 11.4499 72.1304 11.4014C71.8292 11.3529 71.4442 11.3206 71.0091 11.3206H68.1974Z" fill="#222222"/>
<path d="M77.4431 10.0106H79.6188L83.4514 19.7626L87.1501 10.0106H89.3425V21.5254H87.853V11.919L84.1208 21.5254H82.7485L78.9494 11.919V21.5254H77.4431V10.0106Z" fill="#222222"/>
<path d="M97.0093 10.0106L101.662 21.5254H99.9046L98.5825 17.9998H93.5784L92.2227 21.5254H90.5491L95.2352 10.0106H97.0093ZM98.1139 16.7869L96.0888 11.4661L94.0302 16.7869H98.1139Z" fill="#222222"/>
<path d="M104.498 10.0106V21.5254H102.924V10.0106H104.498Z" fill="#222222"/>
<path d="M115.105 20.1993V21.5254H107.205V10.0106H108.779V20.1993H115.105Z" fill="#222222"/>
<path d="M121.512 16.7842C122.196 16.7842 122.785 17.0389 123.281 17.5214C123.764 18.004 124.019 18.5938 124.019 19.2775C124.019 19.9745 123.764 20.5643 123.281 21.0469C122.785 21.5429 122.196 21.7842 121.512 21.7842C120.815 21.7842 120.225 21.5429 119.742 21.0469C119.26 20.5643 119.019 19.9745 119.019 19.2775C119.019 18.5938 119.26 18.004 119.742 17.5214C120.225 17.0389 120.815 16.7842 121.512 16.7842ZM121.512 17.2131C120.935 17.2131 120.453 17.4142 120.051 17.8164C119.649 18.2185 119.448 18.7145 119.448 19.2775C119.448 19.8539 119.649 20.3365 120.051 20.7386C120.453 21.1407 120.935 21.3418 121.512 21.3418C122.075 21.3418 122.571 21.1407 122.973 20.7386C123.375 20.3365 123.576 19.8539 123.576 19.2775C123.576 18.7145 123.375 18.2185 122.973 17.8164C122.571 17.4142 122.075 17.2131 121.512 17.2131ZM120.466 17.8834H121.458C122.276 17.8834 122.692 18.1649 122.692 18.7011C122.692 19.0228 122.517 19.2507 122.182 19.3579C122.356 19.4383 122.477 19.5322 122.544 19.6528C122.598 19.7735 122.638 19.9879 122.651 20.2828C122.651 20.4303 122.665 20.5509 122.718 20.6582H122.075C122.035 20.5912 122.008 20.4571 122.008 20.2694C121.994 20.0013 121.954 19.8271 121.874 19.7466C121.793 19.6662 121.633 19.626 121.391 19.626H121.123V20.6582H120.466V17.8834ZM121.123 19.1166H121.431C121.834 19.1166 122.035 18.996 122.035 18.7547C122.035 18.5134 121.834 18.3928 121.431 18.3928H121.123V19.1166Z" fill="#252525"/>
</svg>
